<svg width="20" height="20" viewBox="0 0 20 20" fill="none" xmlns="http://www.w3.org/2000/svg">
<path fill-rule="evenodd" clip-rule="evenodd" d="M8.52247 0.0775072C7.44943 0.245241 6.58931 0.516622 5.61031 0.996331C4.4919 1.54436 3.67969 2.13288 2.81229 3.02379C1.30943 4.56737 0.349167 6.54207 0.065701 8.6721C-0.0128334 9.26203 -0.0231199 10.6061 0.046537 11.1699C0.264432 12.9331 0.912012 14.5475 1.98721 16.008C2.37077 16.529 3.15841 17.3532 3.66104 17.7595C5.13041 18.947 6.95291 19.7208 8.82655 19.9525C9.33895 20.0158 10.6651 20.0158 11.1775 19.9525C13.0474 19.7213 14.8097 18.9775 16.2985 17.7911C17.0896 17.1608 18.0026 16.1199 18.5632 15.2093C19.2791 14.0463 19.7962 12.5312 19.9639 11.1049C20.036 10.4918 19.9942 8.88668 19.8915 8.32611C19.4995 6.18457 18.5848 4.42797 17.0756 2.91836C15.5585 1.40082 13.8311 0.500553 11.6695 0.100858C11.0021 -0.0225222 9.24586 -0.0355369 8.52247 0.0775072ZM10.4097 4.36388C10.4918 4.41312 10.6028 4.54392 10.6563 4.65443C10.7508 4.84974 10.7536 4.92388 10.7536 7.27108V9.68668L12.2056 11.1442C13.4377 12.381 13.6664 12.6319 13.716 12.8014C13.876 13.3473 13.3543 13.8691 12.8085 13.7092C12.6386 13.6594 12.372 13.4151 11.0186 12.0691C9.97169 11.0279 9.39823 10.4232 9.34041 10.2994C9.25793 10.123 9.25253 9.9511 9.25154 7.48349C9.25055 4.92938 9.25323 4.84984 9.34675 4.65659C9.54327 4.25051 10.0076 4.12262 10.4097 4.36388Z" fill="#5F1A1D"/>
</svg>
