<svg width="20" height="18" viewBox="0 0 20 18" fill="none" xmlns="http://www.w3.org/2000/svg">
<path fill-rule="evenodd" clip-rule="evenodd" d="M9.06634 0.0142616C9.06634 0.0282218 9.37408 1.73178 9.75022 3.79995C10.1264 5.86812 10.4341 7.57792 10.4341 7.59952C10.4341 7.62108 10.4492 7.63871 10.4676 7.63871C10.5084 7.63871 15.8421 3.19033 15.8571 3.1439C15.8629 3.1259 14.3681 2.42111 12.5354 1.57772C8.8471 -0.119517 9.06634 -0.0207215 9.06634 0.0142616ZM3.74319 2.73724C1.90084 4.10612 0.349015 5.27027 0.294656 5.32425C0.240258 5.37824 0.151744 5.51581 0.097893 5.63002L0 5.83764L0.00171948 10.2179C0.00308724 13.6745 0.0139903 14.6294 0.0535774 14.7464C0.13068 14.9745 0.293562 15.1731 0.498101 15.2887C0.798228 15.4584 6.88268 17.8522 6.91566 17.8136C6.93219 17.7943 7.36847 15.9105 7.88517 13.6276L8.82463 9.47667L8.16596 5.86271C7.80369 3.87504 7.42506 1.79807 7.32458 1.24718C7.22411 0.696328 7.13087 0.246216 7.11739 0.247C7.1039 0.247785 5.58549 1.3684 3.74319 2.73724ZM13.9252 7.37438C12.1663 8.84185 10.7132 10.0564 10.696 10.0734C10.6603 10.1088 8.86938 17.9764 8.89165 17.9999C8.90592 18.015 18.9475 15.1637 19.3147 15.0404C19.6894 14.9145 19.9564 14.5621 19.9977 14.1387C20.018 13.9309 19.9301 13.6275 18.5992 9.31162C17.8181 6.77868 17.1665 4.70625 17.1511 4.70625C17.1357 4.70625 15.684 5.90691 13.9252 7.37438Z" fill="#5F1A1D"/>
</svg>
