<svg width="15" height="24" viewBox="0 0 15 24" fill="none" xmlns="http://www.w3.org/2000/svg">
<path fill-rule="evenodd" clip-rule="evenodd" d="M5.12126 0.401076C5.18855 1.28742 5.14884 2.20742 5.01505 2.86308C4.83369 3.75186 4.35881 4.8881 3.10994 7.42145C2.35385 8.9552 1.04151 11.7618 0.775548 12.4138C0.45361 13.203 0.182129 14.1954 0.0573694 15.0389C-0.0342933 15.6586 -0.0129887 17.0017 0.0989704 17.664C0.426957 19.604 1.2976 21.3306 2.75215 22.9257C3.2102 23.428 3.87661 24.0587 3.87661 23.9899C3.87661 23.9722 3.80848 23.6806 3.72524 23.3421C3.37901 21.9344 3.25132 20.9394 3.24628 19.6094C3.24251 18.6227 3.28608 18.1215 3.446 17.3124C3.71656 15.9433 4.30033 14.6144 5.09536 13.5578C5.41813 13.1289 6.07787 12.4492 6.38981 12.2244L6.6164 12.0611L6.64389 13.1281C6.65945 13.734 6.7032 14.4179 6.74511 14.7108C6.91853 15.9229 7.3131 17.3201 7.80136 18.4512C8.09327 19.1274 8.54474 20.0112 8.71469 20.2391L8.81385 20.3721L9.19532 20.1809C9.65092 19.9526 10.1559 19.6325 10.8686 19.1202C11.1579 18.9123 11.4098 18.735 11.4283 18.7262C11.4623 18.7102 11.4514 18.8848 11.3676 19.7031C11.3009 20.3541 11.0581 21.6839 10.782 22.9104C10.649 23.5014 10.5461 23.9912 10.5534 23.9991C10.5868 24.0347 11.5249 23.0429 11.9546 22.5177C13.4383 20.7042 14.451 18.6311 14.8536 16.5831C15.3165 14.2286 14.6687 11.2144 13.0961 8.40534L12.8851 8.02841L12.8569 8.90856C12.8414 9.39266 12.8059 9.96802 12.7778 10.1872C12.4842 12.4837 11.6749 14.4992 10.3316 16.2788C10.3015 16.3188 10.3364 16.1984 10.4094 16.0115C10.8876 14.7852 11.0986 12.6451 10.9815 10.2106C10.8937 8.38861 10.7609 7.51778 10.399 6.39223C9.89246 4.81661 9.04067 3.42405 7.77089 2.09571C7.0521 1.34376 6.22253 0.67896 5.34952 0.155161L5.09084 0L5.12126 0.401076Z" fill="#5F1A1D"/>
</svg>
