<svg width="22" height="22" viewBox="0 0 22 22" fill="none" xmlns="http://www.w3.org/2000/svg">
<path fill-rule="evenodd" clip-rule="evenodd" d="M9.62318 0.0654768C9.38659 0.151176 9.09167 0.414902 8.97382 0.646117C8.91298 0.765457 8.86402 0.97521 8.85156 1.16964C8.83713 1.39452 8.8045 1.51858 8.74523 1.57383C8.69818 1.61773 8.36416 1.74832 8.0029 1.86402C7.63365 1.98233 7.05136 2.22199 6.67284 2.41146C6.30251 2.59681 5.94925 2.74846 5.88772 2.74846C5.82517 2.74846 5.68043 2.66036 5.55895 2.54829C5.43963 2.43818 5.26678 2.31663 5.17483 2.27818C4.95512 2.18629 4.50796 2.18904 4.27922 2.28377C4.04853 2.37925 2.43772 3.97236 2.2948 4.24635C2.08162 4.65505 2.20178 5.24429 2.56965 5.59425C2.67951 5.69876 2.74756 5.80941 2.74756 5.88357C2.74756 5.94957 2.59693 6.30509 2.41285 6.67357C2.22876 7.042 1.98192 7.64115 1.86432 8.00492C1.74671 8.36868 1.61399 8.70622 1.56944 8.75494C1.51135 8.81844 1.39758 8.84855 1.16747 8.86127C0.973911 8.87197 0.76966 8.91824 0.652938 8.97786C0.396237 9.10894 0.117115 9.42487 0.0525961 9.65736C-0.0198708 9.91868 -0.0163873 12.0871 0.0569628 12.3321C0.130902 12.5791 0.400359 12.8914 0.649307 13.0185C0.76966 13.08 0.971605 13.1262 1.16747 13.137C1.57092 13.1593 1.6162 13.2053 1.78739 13.767C1.86034 14.0064 1.94174 14.2593 1.96823 14.3291C2.01494 14.4521 2.06808 14.4044 3.65764 12.8138L5.29886 11.1715L5.30038 10.9012C5.30838 9.47324 5.89984 8.07731 6.93646 7.03964C7.95933 6.01582 9.25353 5.43312 10.7449 5.32508C12.0795 5.22838 13.5248 5.70534 14.5881 6.59342L14.8252 6.79143L16.0959 5.52019L17.3665 4.249L17.2258 4.10034C16.9346 3.79271 16.8301 3.39791 16.9298 2.98194C16.9779 2.78156 17.0455 2.67254 17.2465 2.47133C17.4899 2.22759 17.4967 2.21409 17.3877 2.18673C17.2546 2.15329 16.8762 2.22985 16.6889 2.32817C16.6174 2.36564 16.4829 2.47555 16.3899 2.5724C16.2821 2.68457 16.1752 2.74846 16.0951 2.74846C16.0259 2.74846 15.6714 2.59779 15.3074 2.41367C14.9328 2.22425 14.358 1.98587 13.9831 1.86461C13.6188 1.74674 13.2809 1.6138 13.2322 1.56921C13.1688 1.51106 13.1387 1.39717 13.126 1.16684C13.1152 0.97079 13.0691 0.768649 13.0077 0.64818C12.8807 0.39899 12.5687 0.129272 12.3219 0.0552617C12.0575 -0.0240527 9.84715 -0.0156547 9.62318 0.0654768ZM19.7726 2.72636C18.8416 2.8157 18.0403 2.89039 17.9918 2.89231C17.8449 2.8981 17.6629 3.11984 17.6629 3.29301C17.6629 3.42202 17.7307 3.51823 18.0542 3.84772L18.4455 4.24635L15.5159 7.1802L12.5862 10.114L11.3812 8.91136C10.3818 7.91392 10.1527 7.70868 10.0387 7.70868C9.92418 7.70868 9.60262 8.00173 8.10299 9.47285C7.11392 10.4431 4.88614 12.6594 3.15233 14.3979C0.221424 17.3367 0 17.5704 0 17.7254C0 17.8746 0.0783545 17.9711 0.748219 18.6467C1.15976 19.0618 1.54374 19.4133 1.60153 19.4278C1.65938 19.4423 1.76977 19.4207 1.84685 19.3797C1.92398 19.3387 3.79722 17.4918 6.0096 15.2755L10.0321 11.2459L11.2371 12.4485C12.2635 13.4728 12.4635 13.6511 12.5863 13.6511C12.7119 13.6511 13.2154 13.1659 16.4851 9.89412C18.55 7.82778 20.2599 6.13713 20.2847 6.13713C20.3095 6.13713 20.5 6.30288 20.7079 6.50546C21.0178 6.8073 21.1143 6.87379 21.2421 6.87379C21.4628 6.87379 21.5725 6.80086 21.6297 6.61635C21.6569 6.52835 21.7514 5.64135 21.8397 4.64528L22 2.83416L21.8423 2.69312C21.7555 2.61552 21.6352 2.55467 21.5749 2.55796C21.5146 2.56125 20.7036 2.63703 19.7726 2.72636ZM18.3171 9.19537L16.6926 10.8272L16.6609 11.3165C16.6059 12.164 16.4347 12.8273 16.0946 13.5104C15.3277 15.0508 13.8631 16.1706 12.1187 16.55C10.4323 16.9169 8.70019 16.4971 7.39216 15.4047L7.15499 15.2066L5.28321 17.0802L3.41144 18.9538L3.72957 19.2791C4.11251 19.6708 4.34011 19.7874 4.72394 19.7889C5.07572 19.7902 5.28007 19.7073 5.55895 19.45C5.68043 19.3379 5.82517 19.2498 5.88772 19.2498C5.94925 19.2498 6.30251 19.4014 6.67284 19.5868C7.05136 19.7763 7.63365 20.0159 8.0029 20.1342C8.36416 20.2499 8.69818 20.3805 8.74523 20.4244C8.8045 20.4797 8.83713 20.6037 8.85156 20.8286C8.87673 21.2214 9.00169 21.486 9.27095 21.7167C9.57308 21.9756 9.72121 22 10.9902 22C12.2593 22 12.4074 21.9756 12.7095 21.7167C12.9804 21.4846 13.1045 21.2209 13.126 20.8314C13.1387 20.6011 13.1688 20.4872 13.2322 20.429C13.2809 20.3844 13.6188 20.2515 13.9831 20.1336C14.358 20.0124 14.9328 19.774 15.3074 19.5846C15.6714 19.4005 16.0222 19.2498 16.0869 19.2498C16.1563 19.2498 16.2935 19.3319 16.4215 19.45C16.5408 19.5601 16.7137 19.6816 16.8056 19.7201C17.0253 19.812 17.4725 19.8092 17.7012 19.7145C17.9305 19.6196 19.5427 18.0263 19.6831 17.7559C19.8966 17.3446 19.7774 16.7528 19.4108 16.404C19.2966 16.2953 19.2329 16.1897 19.2329 16.1089C19.2329 16.0397 19.3837 15.6846 19.568 15.3198C19.7628 14.9341 19.9917 14.3794 20.1149 13.9943C20.2314 13.63 20.3639 13.292 20.4094 13.2433C20.4684 13.18 20.5837 13.1496 20.813 13.137C21.0066 13.1263 21.2108 13.08 21.3275 13.0204C21.5842 12.8893 21.8634 12.5734 21.9279 12.3409C22.0003 12.0796 21.9969 9.91112 21.9235 9.66615C21.8496 9.41912 21.5801 9.10682 21.3312 8.97972C21.2108 8.91824 21.0089 8.87207 20.813 8.86127C20.5847 8.84865 20.4676 8.81795 20.4076 8.75494C20.3611 8.70622 20.2526 8.4343 20.1662 8.15068C20.08 7.86706 19.9942 7.61891 19.9755 7.59926C19.9568 7.57962 19.2106 8.29787 18.3171 9.19537Z" fill="#5F1A1D"/>
</svg>
