<svg width="20" height="20" viewBox="0 0 20 20" fill="none" xmlns="http://www.w3.org/2000/svg">
<path fill-rule="evenodd" clip-rule="evenodd" d="M9.70275 0.04923C9.52234 0.133898 0.182283 8.04307 0.0819775 8.19614C-0.0329445 8.37142 -0.0256584 8.78944 0.0951639 8.95118C0.240705 9.14608 0.401712 9.2445 0.613855 9.26841C0.896086 9.30022 1.0511 9.21703 1.62334 8.72676L2.12621 8.29595L2.12675 13.223C2.12733 18.4991 2.12027 18.3239 2.35208 18.8203C2.49476 19.1258 3.0193 19.6421 3.33823 19.7909C3.76024 19.9878 4.00484 20.0116 5.45631 19.9962C6.72166 19.9827 6.80914 19.9765 7.0072 19.885C7.27549 19.7611 7.57618 19.4605 7.71595 19.1765L7.82538 18.9543L7.84773 14.5757L7.87008 10.1971L7.99251 9.83615C8.12249 9.45302 8.35922 9.05042 8.63202 8.7486C8.88202 8.47199 9.41395 8.13797 9.82724 7.99803L10.1944 7.87373L13.7704 7.86091C16.9057 7.84965 17.3899 7.85688 17.7 7.91957C18.3612 8.05325 18.9775 8.42494 19.3649 8.92357C19.4795 9.0711 19.5982 9.19178 19.6285 9.19178C19.7239 9.19178 19.9555 8.888 19.9867 8.72202C20.0222 8.53293 19.9853 8.31923 19.8929 8.17831C19.8343 8.08882 10.7662 0.388618 10.4059 0.122326C10.2349 -0.00398357 9.89214 -0.0396381 9.70275 0.04923ZM10.2348 9.36224C9.96089 9.45754 9.69497 9.66003 9.5286 9.89996C9.28172 10.2561 9.2781 10.2987 9.2781 12.8568C9.2781 15.4446 9.29272 15.6349 9.55099 16.4074C9.90769 17.4743 10.4899 18.2106 11.681 19.1007C12.6547 19.8284 13.0534 19.9829 13.9492 19.9798C14.4641 19.978 14.5705 19.9638 14.883 19.8552C15.3353 19.698 15.5161 19.5903 16.2512 19.0405C17.4234 18.1635 18.0387 17.3377 18.3692 16.1978C18.5671 15.5151 18.5814 15.2636 18.5669 12.7215C18.5535 10.3776 18.5513 10.3271 18.4562 10.1213C18.332 9.85264 18.0038 9.52456 17.735 9.40044C17.5259 9.30384 17.5124 9.30344 13.9939 9.29321C10.7123 9.28369 10.4465 9.28856 10.2348 9.36224ZM15.658 12.2284C15.9698 12.3699 16.1331 12.7374 16.027 13.0588C15.9941 13.1583 15.5868 13.6867 14.9956 14.3968C14.1871 15.3678 13.9873 15.5829 13.8377 15.6427C13.6056 15.7355 13.5008 15.7327 13.2687 15.6274C13.1054 15.5533 13.0201 15.4515 12.6338 14.8688C12.3821 14.4892 12.1747 14.1268 12.1579 14.0376C12.1201 13.8364 12.2377 13.5152 12.3943 13.3921C12.7805 13.0884 13.2048 13.194 13.5487 13.6794L13.64 13.8081L14.2639 13.0572C15.0397 12.1235 15.2073 12.0239 15.658 12.2284Z" fill="#5F1A1D"/>
</svg>
