<svg width="21" height="24" viewBox="0 0 21 24" fill="none" xmlns="http://www.w3.org/2000/svg">
<path fill-rule="evenodd" clip-rule="evenodd" d="M7.70006 0.0287919C6.65221 0.209109 5.79449 0.638576 5.0389 1.36135C4.11857 2.24172 3.63402 3.30988 3.56787 4.60433C3.52387 5.4643 3.68494 6.35251 3.99286 6.94836L4.08884 7.13402L3.8084 7.3675C3.37864 7.72527 2.55089 8.55413 2.2517 8.92621C1.15564 10.2895 0.429982 11.8931 0.109698 13.6601C0.0149638 14.1825 -0.000737776 14.4249 2.58274e-05 15.3492C0.00107578 16.5313 0.0534781 16.98 0.30394 17.9508C0.625465 19.1971 1.19192 20.3764 1.978 21.4361C2.41507 22.0253 3.0239 22.6826 3.43252 23.0065C3.8715 23.3544 4.59177 23.7175 5.15063 23.8725L5.53243 23.9784L10.2749 23.9938C15.4976 24.0107 15.4446 24.0131 16.2595 23.7232C16.9035 23.4941 17.3921 23.1715 17.9911 22.5798C19.4643 21.1245 20.4604 19.2474 20.8298 17.2302C21.3889 14.1778 20.5563 11.0758 18.5409 8.70184C18.1526 8.24445 17.4997 7.61567 17.1252 7.3385C17.0112 7.25405 16.9172 7.15777 16.9164 7.12445C16.9156 7.09118 16.9575 6.98186 17.0095 6.88154C17.3082 6.30606 17.4722 5.2227 17.3899 4.36912C17.1928 2.32369 15.7377 0.639561 13.7152 0.115971C13.3234 0.014481 13.2333 0.0111496 10.6152 0.00134318C9.13211 -0.00424041 7.82033 0.00809979 7.70006 0.0287919ZM13.0253 3.70753C13.4493 3.90497 13.6785 4.22343 13.7436 4.70577C13.8159 5.24175 13.5831 5.73118 13.1228 6.01097L12.8896 6.15272H10.4996C8.14543 6.15272 8.10673 6.15122 7.91807 6.05189C7.64585 5.90854 7.46888 5.72138 7.33396 5.43413C7.2346 5.22251 7.21942 5.12994 7.23369 4.82289C7.25364 4.39398 7.39443 4.08008 7.6625 3.86678C7.99715 3.6005 8.00445 3.5998 10.4959 3.59806L12.7867 3.59647L13.0253 3.70753ZM6.8727 10.8498C7.18048 10.9934 7.24744 11.1775 7.2744 11.9543L7.29826 12.6415L8.08311 11.7955C8.51478 11.3303 8.93357 10.9103 9.01375 10.8622C9.42027 10.6185 9.99732 10.8867 10.0747 11.3554C10.1285 11.6813 10.0321 11.8157 8.77135 13.1734C8.10554 13.8904 7.56075 14.4949 7.56075 14.5167C7.56075 14.5386 8.10873 15.1466 8.77851 15.8678C10.064 17.252 10.1349 17.3527 10.0685 17.7001C10.0234 17.9369 9.7406 18.2158 9.50112 18.26C9.13941 18.3267 8.99017 18.2203 8.10735 17.2654L7.29826 16.3903L7.2744 17.0982C7.24849 17.8668 7.22434 17.9397 6.92181 18.1616C6.73463 18.2988 6.34385 18.2914 6.13716 18.1467C5.80227 17.9123 5.81878 18.1017 5.81878 14.4963C5.81878 11.2765 5.81959 11.2495 5.91862 11.118C6.16293 10.7939 6.53098 10.6904 6.8727 10.8498ZM13.9187 10.9718C14.6606 11.3182 15.1467 12.0487 15.1485 12.8203C15.1491 13.0837 15.0353 13.2963 14.8032 13.4653C14.6332 13.5893 14.2727 13.5934 14.0668 13.4739C13.8899 13.3711 13.7173 13.0907 13.7173 12.906C13.7173 12.6703 13.5346 12.3757 13.3222 12.2692C12.9791 12.0972 12.5438 12.2468 12.3995 12.5864C12.2995 12.8214 12.3028 16.2579 12.4031 16.4486C12.5307 16.6912 12.7445 16.8272 12.998 16.8272C13.4309 16.8272 13.7171 16.5145 13.7172 16.0413C13.7173 15.8193 13.707 15.795 13.6131 15.795C13.5557 15.795 13.4201 15.7527 13.3116 15.7011C12.8181 15.4662 12.7757 14.7956 13.2352 14.4938C13.3832 14.3966 13.4519 14.3873 14.0227 14.3875C14.7245 14.3877 14.8739 14.4369 15.0539 14.7271C15.1384 14.8633 15.1487 14.9645 15.1489 15.6561C15.1491 16.5119 15.091 16.8403 14.8755 17.2019C14.5498 17.7485 13.9679 18.1382 13.32 18.2437C12.4246 18.3896 11.4906 17.8832 11.0788 17.0284L10.9254 16.7099L10.9115 14.6286C10.8996 12.8236 10.908 12.5121 10.975 12.2826C11.1729 11.6039 11.6813 11.0864 12.3696 10.8625C12.5828 10.7932 12.7456 10.7772 13.1042 10.7901C13.5135 10.8048 13.6044 10.8251 13.9187 10.9718Z" fill="#5F1A1D"/>
</svg>
