<svg width="20" height="24" viewBox="0 0 20 24" fill="none" xmlns="http://www.w3.org/2000/svg">
<path fill-rule="evenodd" clip-rule="evenodd" d="M10.7783 0.0746384C10.4983 0.169526 10.1593 0.501681 10.0612 0.777437C9.99661 0.958774 9.9827 1.2289 9.9827 2.30216V3.60649H12.4809H14.9791V4.80197V5.99744H12.4809H9.9827V7.19292V8.38839H11.2318H12.4809V9.58387V10.7793H11.2318H9.9827V11.9983V13.2172H12.4809H14.9791V14.4126V15.6081H12.4809H9.9827V16.8036V17.9991H11.2318H12.4809V19.1945V20.39H11.2318H9.9827V21.6943C9.9827 23.1988 10.0038 23.3094 10.3539 23.6446C10.7428 24.0168 10.5221 23.9999 14.9944 23.9999C17.8922 23.9999 19.0117 23.985 19.1522 23.9447C19.3957 23.8749 19.7514 23.5774 19.8918 23.3261L20 23.1326V11.9983V0.863933L19.8918 0.670407C19.7514 0.419123 19.3957 0.121567 19.1522 0.0517603C19.0112 0.0113486 17.8972 -0.00238769 14.9734 0.000331432C11.5539 0.00351936 10.9572 0.0140677 10.7783 0.0746384ZM1.85364 2.71214C0.844662 3.81544 0.0107037 4.74224 0.000416938 4.77178C-0.0132987 4.81111 0.309753 4.82541 1.21043 4.82541H2.4391V14.4126V23.9999H3.7127H4.98629V14.4126V4.82541H6.21497C7.16222 4.82541 7.43909 4.81228 7.4237 4.76802C7.40058 4.70173 3.74958 0.705099 3.7127 0.705755C3.69923 0.70599 2.86267 1.60888 1.85364 2.71214Z" fill="#5F1A1D"/>
</svg>
