<svg width="24" height="18" viewBox="0 0 24 18" fill="none" xmlns="http://www.w3.org/2000/svg">
<path fill-rule="evenodd" clip-rule="evenodd" d="M0.251905 0.14093L0.107168 0.282871L0.12286 4.73031C0.138376 9.12045 0.140132 9.17976 0.259283 9.33623C0.560057 9.73128 0.553265 9.72984 2.1918 9.74868L3.68057 9.76579L3.82706 9.62212C4.02004 9.43287 4.02121 9.17012 3.82987 8.98253L3.68619 8.84156H2.36611H1.04608V4.56121V0.280804L0.902343 0.139896C0.711761 -0.0470046 0.443131 -0.0466028 0.251905 0.14093ZM23.2048 0.139896L23.0611 0.280804V4.56121V8.84156H21.624H20.1868L20.0431 8.98253C19.8518 9.17006 19.8529 9.43287 20.0457 9.62195L20.1921 9.76544L21.7981 9.74851C23.3143 9.73254 23.4131 9.72496 23.5656 9.61317C23.6545 9.54805 23.7815 9.42345 23.8479 9.33623C23.967 9.17976 23.9688 9.12045 23.9843 4.73031L24 0.282871L23.8553 0.14093C23.664 -0.0466028 23.3954 -0.0470046 23.2048 0.139896ZM3.40099 1.25562C3.05577 1.56781 2.56904 2.0135 2.31938 2.24611C1.70601 2.81743 1.70689 2.86475 2.34392 3.5729C2.60692 3.86523 3.06971 4.38011 3.37236 4.71699C3.67506 5.05387 3.9626 5.34459 4.01149 5.36296C4.32111 5.47947 4.67622 5.25438 4.67622 4.94162C4.67622 4.75707 4.62434 4.6884 3.83707 3.83169L3.37546 3.32927H12.022H20.6685L19.9912 4.04398C19.4297 4.63649 19.3138 4.78917 19.3138 4.93662C19.3138 5.1787 19.5409 5.39621 19.7943 5.39684C20.002 5.39736 20.0742 5.33035 21.6032 3.71904C22.496 2.77827 22.5193 2.88358 21.1582 1.71429C19.935 0.663506 19.9679 0.687967 19.7776 0.687967C19.54 0.687967 19.3138 0.913569 19.3138 1.15048C19.3138 1.34588 19.3781 1.41909 20.1043 2.05146L20.5141 2.40838L12.0243 2.40855L3.53448 2.40872L4.10553 1.87851C4.60315 1.41639 4.67651 1.32401 4.67639 1.1591C4.67616 0.91133 4.45443 0.687967 4.20875 0.687967C4.06214 0.687967 3.91196 0.793505 3.40099 1.25562ZM0.545478 11.2191C0.310163 11.3196 0.063841 11.6129 0.0210406 11.8434C0.0021873 11.9452 -0.00542436 13.2474 0.00411938 14.7373C0.0209819 17.37 0.0248464 17.4507 0.142182 17.6047C0.208578 17.6919 0.335632 17.8165 0.424571 17.8816L0.586287 18H11.995H23.4038L23.5655 17.8816C23.6544 17.8165 23.7815 17.6919 23.8479 17.6047C23.966 17.4495 23.9686 17.3851 23.9686 14.5835C23.9686 11.7819 23.966 11.7176 23.8479 11.5624C23.5492 11.1701 23.5433 11.1688 22.003 11.1498L20.602 11.1325V12.6543C20.602 13.6631 20.5797 14.2242 20.5358 14.3185C20.3877 14.6374 19.8794 14.6374 19.7313 14.3185C19.6875 14.2242 19.6652 13.6638 19.6652 12.6573V11.1383H18.8454H18.0257V12.3128C18.0257 13.0633 18.0018 13.5385 17.9596 13.6295C17.8114 13.9484 17.3032 13.9484 17.1551 13.6295C17.1128 13.5385 17.0889 13.0633 17.0889 12.3128V11.1383H16.1521H15.2153V12.3128C15.2153 13.0633 15.1914 13.5385 15.1491 13.6295C15.001 13.9484 14.4928 13.9484 14.3447 13.6295C14.3024 13.5385 14.2785 13.0633 14.2785 12.3128V11.1383H13.4588H12.6391V12.6573C12.6391 13.6638 12.6168 14.2242 12.5729 14.3185C12.4248 14.6374 11.9166 14.6374 11.7684 14.3185C11.7246 14.2242 11.7023 13.6638 11.7023 12.6573V11.1383H10.7655H9.82866V12.3128C9.82866 13.589 9.80109 13.7294 9.5283 13.8402C9.31248 13.9279 9.05187 13.8316 8.95802 13.6295C8.91574 13.5385 8.89186 13.0633 8.89186 12.3128V11.1383H7.95505H7.01824V12.3128C7.01824 13.0633 6.99435 13.5385 6.95208 13.6295C6.80394 13.9484 6.29572 13.9484 6.14759 13.6295C6.10532 13.5385 6.08143 13.0633 6.08143 12.3128V11.1383H5.14462H4.20781V12.6573C4.20781 13.6638 4.18551 14.2242 4.14165 14.3185C3.99352 14.6374 3.4853 14.6374 3.33717 14.3185C3.29331 14.2242 3.271 13.6638 3.271 12.6573V11.1383L1.99753 11.1406C1.07167 11.1423 0.675343 11.1637 0.545478 11.2191Z" fill="#5F1A1D"/>
</svg>
