<svg width="20" height="20" viewBox="0 0 20 20" fill="none" xmlns="http://www.w3.org/2000/svg">
<path fill-rule="evenodd" clip-rule="evenodd" d="M8.98459 0.0254715C7.18011 0.224956 5.44995 0.893177 4.06591 1.92513C1.88036 3.55472 0.489827 5.86977 0.0762287 8.56745C-0.0254096 9.23059 -0.0254096 10.7591 0.0762287 11.4223C0.520627 14.3207 2.09005 16.774 4.52299 18.3734C6.25934 19.5148 8.22608 20.0636 10.332 19.9942C11.1587 19.9669 11.6474 19.9002 12.4286 19.7081C16.001 18.8296 18.8286 16.0105 19.7195 12.439C19.9497 11.5163 20 11.0781 20 9.99485C20 9.26109 19.9831 8.92684 19.9281 8.56745C19.2475 4.1283 15.8587 0.742067 11.4306 0.076467C10.958 0.00540964 9.45028 -0.0260324 8.98459 0.0254715ZM15.403 6.3579V8.11772H14.816H14.2289V6.94451V5.7713H13.0548H11.8807V5.1847V4.59809H13.6419H15.403V6.3579ZM12.9181 7.92152L12.5069 8.33234L12.0867 7.91241L11.6664 7.49248L12.0762 7.08158L12.486 6.67068L12.9076 7.09069L13.3292 7.51066L12.9181 7.92152ZM11.2545 8.76298L11.6641 9.17361L11.2545 9.58427L10.8449 9.99493L10.4235 9.57516L10.0021 9.15538L10.4026 8.75387C10.6229 8.53303 10.8125 8.35236 10.824 8.35236C10.8356 8.35236 11.0293 8.53714 11.2545 8.76298ZM9.59145 11.2456L9.18027 11.6564L8.76002 11.2365L8.33977 10.8166L8.74957 10.4057L9.15938 9.99477L9.581 10.4148L10.0026 10.8348L9.59145 11.2456ZM7.9279 12.0871L8.33742 12.4977L7.92786 12.9084L7.51829 13.319L7.0969 12.8992L6.67552 12.4795L7.07597 12.078C7.29623 11.8571 7.48585 11.6765 7.49739 11.6765C7.50894 11.6765 7.70266 11.8612 7.9279 12.0871ZM5.77537 13.0452V14.2184H6.94948H8.12358V14.805V15.3916H6.36242H4.60127V13.6318V11.872H5.18832H5.77537V13.0452Z" fill="#5F1A1D"/>
</svg>
