<svg width="18" height="18" viewBox="0 0 18 18" fill="none" xmlns="http://www.w3.org/2000/svg">
<path fill-rule="evenodd" clip-rule="evenodd" d="M1.76212 0.0574591C0.941152 0.233793 0.231032 0.950549 0.058026 1.7774C-0.019342 2.14736 -0.019342 15.8501 0.058026 16.2201C0.232789 17.0554 0.94442 17.7672 1.77969 17.942C2.1496 18.0193 15.8504 18.0193 16.2203 17.942C17.0556 17.7672 17.7672 17.0554 17.942 16.2201C18.0193 15.8501 18.0193 2.14736 17.942 1.7774C17.7672 0.94201 17.0556 0.230279 16.2203 0.0554912C15.8607 -0.0197441 2.11288 -0.0178817 1.76212 0.0574591ZM15.3484 2.28918C15.483 2.34003 15.6391 2.49166 15.6976 2.62843C15.7372 2.72106 15.746 3.21369 15.746 5.35313V7.96476L15.6669 8.12156C15.5818 8.29033 15.3576 8.43648 15.1838 8.43648C15.0109 8.43648 14.7859 8.29023 14.6974 8.12022L14.615 7.96209L14.6335 6.06708L14.6519 4.17207L12.7395 6.08451L10.8271 7.99691L10.432 7.60169L10.0368 7.2065L11.9514 5.29139L13.866 3.37628H11.9499H10.0338L9.87705 3.29722C9.70829 3.21211 9.56217 2.98788 9.56217 2.81404C9.56217 2.6402 9.70829 2.41597 9.87705 2.33086L10.0338 2.25179H12.6417C14.3988 2.25179 15.2818 2.26399 15.3484 2.28918ZM3.06347 9.64004C3.17678 9.69718 3.24308 9.76292 3.3026 9.87723L3.38499 10.0354L3.36654 11.9304L3.34813 13.8254L5.26051 11.9129L7.17289 10.0005L7.56803 10.3958L7.96319 10.791L6.0486 12.7061L4.134 14.6212H6.05011H7.96618L8.12295 14.7002C8.29171 14.7853 8.43783 15.0096 8.43783 15.1834C8.43783 15.3573 8.29171 15.5815 8.12295 15.6666L7.96618 15.7457H5.35492C3.21578 15.7457 2.72322 15.7369 2.6306 15.6973C2.49385 15.6388 2.34224 15.4827 2.2914 15.348C2.26621 15.2814 2.25402 14.3983 2.25402 12.6409V10.0327L2.33307 9.8759C2.41817 9.70712 2.64237 9.56097 2.81618 9.56097C2.86597 9.56097 2.97724 9.59653 3.06347 9.64004Z" fill="#5F1A1D"/>
</svg>
