<svg width="20" height="20" viewBox="0 0 20 20" fill="none" xmlns="http://www.w3.org/2000/svg">
<path fill-rule="evenodd" clip-rule="evenodd" d="M8.34166 0.0170673C6.67525 0.0438291 3.59062 0.190122 3.00824 0.270008C1.6048 0.462526 0.454795 1.60235 0.252837 3.00099C0.207882 3.31216 0.114096 4.88257 0.0443256 6.49079C-0.0147752 7.8544 -0.0147752 12.1467 0.0443256 13.5103C0.114096 15.1185 0.207882 16.6889 0.252837 17.0001C0.453476 18.3896 1.59485 19.5288 2.98702 19.729C3.61795 19.8198 6.48568 19.948 8.88112 19.9926C10.8716 20.0296 14.5502 19.924 16.5734 19.7717C17.3369 19.7142 17.7863 19.5755 18.3151 19.2341C19.0687 18.7475 19.6188 17.8894 19.7472 17.0001C19.7921 16.6889 19.8859 15.1185 19.9557 13.5103C20.0148 12.1467 20.0148 7.8544 19.9557 6.49079C19.8859 4.88257 19.7921 3.31216 19.7472 3.00099C19.5643 1.73485 18.6374 0.695764 17.3804 0.34802C16.9196 0.220553 14.878 0.0977914 12.0979 0.0304283C10.5824 -0.00626452 9.93702 -0.00857776 8.34166 0.0170673ZM7.7238 3.70892C7.91573 3.80552 8.08192 4.06001 8.08192 4.25732C8.08192 4.45462 7.91573 4.70912 7.7238 4.80571C7.55501 4.89066 7.49862 4.89545 6.66562 4.89545H5.7857L7.21011 6.32128C8.42705 7.53944 8.64176 7.7718 8.6842 7.91662C8.82014 8.38007 8.37642 8.82293 7.91209 8.68725C7.76699 8.64489 7.53419 8.4306 6.31369 7.21599L4.88512 5.7943V6.67254C4.88512 7.50395 4.88032 7.56022 4.79521 7.72869C4.69843 7.92025 4.44344 8.08613 4.24576 8.08613C4.04808 8.08613 3.79309 7.92025 3.69631 7.72869C3.60728 7.55245 3.6064 7.5343 3.6064 5.85265C3.6064 4.17101 3.60728 4.15286 3.69631 3.97662C3.762 3.8466 3.83425 3.77449 3.96452 3.70892C4.1411 3.62006 4.15929 3.61918 5.84416 3.61918C7.52903 3.61918 7.54721 3.62006 7.7238 3.70892ZM16.0355 3.70892C16.1657 3.77449 16.238 3.8466 16.3037 3.97662C16.3927 4.15286 16.3936 4.17101 16.3936 5.85265C16.3936 7.5343 16.3927 7.55245 16.3037 7.72869C16.2069 7.92025 15.9519 8.08613 15.7542 8.08613C15.5566 8.08613 15.3016 7.92025 15.2048 7.72869C15.1197 7.56022 15.1149 7.50395 15.1149 6.67254V5.7943L13.6863 7.21599C12.4658 8.4306 12.233 8.64489 12.0879 8.68725C11.6236 8.82293 11.1799 8.38007 11.3158 7.91662C11.3582 7.7718 11.5729 7.53944 12.7899 6.32128L14.2143 4.89545H13.3344C12.5014 4.89545 12.445 4.89066 12.2762 4.80571C12.0843 4.70912 11.9181 4.45462 11.9181 4.25732C11.9181 4.06001 12.0843 3.80552 12.2762 3.70892C12.4528 3.62006 12.471 3.61918 14.1558 3.61918C15.8407 3.61918 15.8589 3.62006 16.0355 3.70892ZM8.42158 11.399C8.64292 11.5332 8.74809 11.8201 8.67656 12.0944C8.6412 12.23 8.4209 12.4682 7.21035 13.6798L5.7857 15.1056H6.66562C7.49862 15.1056 7.55501 15.1104 7.7238 15.1954C7.91573 15.2919 8.08192 15.5464 8.08192 15.7437C8.08192 15.9411 7.91573 16.1955 7.7238 16.2921C7.54721 16.381 7.52911 16.3819 5.84196 16.3819C4.14354 16.3819 4.13791 16.3816 3.96232 16.2904C3.83721 16.2254 3.76021 16.1479 3.69631 16.0227C3.60724 15.8482 3.6064 15.8306 3.6064 14.1484C3.6064 12.4668 3.60728 12.4486 3.69631 12.2724C3.79309 12.0808 4.04808 11.9149 4.24576 11.9149C4.44344 11.9149 4.69843 12.0808 4.79521 12.2724C4.88032 12.4408 4.88512 12.4971 4.88512 13.3291V14.2078L6.29599 12.8001C7.78905 11.3103 7.85954 11.2537 8.16184 11.3034C8.23876 11.316 8.35565 11.3591 8.42158 11.399ZM12.0979 11.3204C12.2326 11.3567 12.4824 11.587 13.6863 12.7851L15.1149 14.2068V13.3285C15.1149 12.4971 15.1197 12.4408 15.2048 12.2724C15.3016 12.0808 15.5566 11.9149 15.7542 11.9149C15.9519 11.9149 16.2069 12.0808 16.3037 12.2724C16.3927 12.4486 16.3936 12.4668 16.3936 14.1484C16.3936 15.8301 16.3927 15.8482 16.3037 16.0244C16.238 16.1545 16.1657 16.2266 16.0355 16.2921C15.8589 16.381 15.8407 16.3819 14.1558 16.3819C12.471 16.3819 12.4528 16.381 12.2762 16.2921C12.0843 16.1955 11.9181 15.9411 11.9181 15.7437C11.9181 15.5464 12.0843 15.2919 12.2762 15.1954C12.445 15.1104 12.5014 15.1056 13.3344 15.1056H14.2143L12.7896 13.6798C11.5439 12.433 11.3594 12.2326 11.3204 12.0844C11.2195 11.7021 11.4982 11.3144 11.8981 11.2806C11.9201 11.2788 12.01 11.2967 12.0979 11.3204Z" fill="#5F1A1D"/>
</svg>
