<svg width="24" height="24" viewBox="0 0 24 24" fill="none" xmlns="http://www.w3.org/2000/svg">
<path fill-rule="evenodd" clip-rule="evenodd" d="M4.75174 0.0965854C4.33998 0.263517 4.12555 0.417373 3.76608 0.803817C2.99816 1.62929 2.62524 2.70431 2.62653 4.08857C2.62731 4.93765 2.76406 5.57241 3.0885 6.23286L3.31688 6.69781H5.4663H7.61578L7.77041 6.43248C8.18138 5.72722 8.38488 4.75342 8.33226 3.74343C8.26836 2.5172 7.84607 1.45199 7.14624 0.752081C6.58865 0.194422 6.23781 0.0312106 5.54684 0.00799124C5.12477 -0.00615452 4.96 0.012218 4.75174 0.0965854ZM7.84467 0.0191499C7.84467 0.0362827 7.98254 0.232295 8.15106 0.454738C8.31959 0.677125 8.53278 1.00118 8.62475 1.17476C9.00154 1.8856 9.30071 3.12508 9.30149 3.97856L9.30183 4.33079H10.5934H11.885L12.0225 4.46915C12.1093 4.55633 12.1601 4.67187 12.1601 4.78165C12.1601 4.89144 12.1093 5.00697 12.0225 5.09416L11.885 5.23251H10.5385H9.19187L9.15891 5.3875C9.14081 5.47271 9.05086 5.75805 8.95895 6.02152C8.86709 6.28499 8.77764 6.54491 8.76016 6.59919C8.72995 6.69268 9.02037 6.69781 14.3315 6.69781H19.9347L20.105 6.37376C20.1987 6.19555 20.3462 5.83413 20.433 5.57066C20.5823 5.11709 20.5907 5.03763 20.5912 4.07718C20.5916 3.19423 20.575 3.00098 20.463 2.58624C20.1276 1.34384 19.5791 0.520169 18.8415 0.151534L18.5772 0.0194318L13.2109 0.00370805C10.2595 -0.00491467 7.84467 0.00201722 7.84467 0.0191499ZM16.7942 1.8045C16.9653 1.96619 16.969 2.27453 16.802 2.45329L16.6801 2.5837H13.7372H10.7942L10.6645 2.46118C10.4934 2.29949 10.4897 1.99116 10.6566 1.81239L10.7785 1.68198H13.7215H16.6645L16.7942 1.8045ZM5.6628 1.99398C6.48133 2.41959 6.68651 4.60204 5.99794 5.55792C5.44579 6.32439 4.69401 5.9611 4.39384 4.78284C4.26376 4.27224 4.30529 3.24484 4.4737 2.80615C4.76177 2.05597 5.20278 1.75474 5.6628 1.99398ZM19.4283 4.45331C19.5994 4.615 19.6031 4.92334 19.4361 5.1021C19.3146 5.23218 19.3104 5.23251 17.8004 5.23251C16.3233 5.23251 16.2835 5.22953 16.1569 5.10999C15.9858 4.9483 15.9821 4.63997 16.149 4.4612C16.2706 4.33113 16.2748 4.33079 17.7847 4.33079C19.2619 4.33079 19.3017 4.33378 19.4283 4.45331ZM3.57105 7.7171C2.97316 7.85878 2.30141 8.40314 1.87592 9.09064C1.04954 10.426 0.950178 12.4961 1.64126 13.9791C1.74674 14.2054 1.91218 14.4984 2.00897 14.6301L2.1849 14.8697H4.05762H5.93035L6.1598 14.5174C6.64873 13.7668 6.90105 12.8192 6.89869 11.7418C6.89662 10.7814 6.74137 10.1068 6.33701 9.30125C5.74401 8.12005 4.61039 7.47076 3.57105 7.7171ZM6.54006 7.92274C7.09619 8.60011 7.43655 9.27104 7.65939 10.1289C7.76817 10.5479 7.80689 10.8662 7.82993 11.5305L7.85969 12.3899H9.57981H11.2999L11.4218 12.5203C11.5887 12.6991 11.585 13.0074 11.4139 13.1691C11.2863 13.2897 11.2551 13.2917 9.48582 13.2917H7.68746L7.56478 13.6978C7.4973 13.9212 7.35579 14.2763 7.25037 14.4868L7.05864 14.8697H14.2884H21.5181L21.6687 14.6301C21.9024 14.2583 22.1206 13.7405 22.2605 13.2261C22.3727 12.8133 22.3879 12.6297 22.3853 11.7136C22.3825 10.7407 22.372 10.6373 22.2281 10.1666C21.891 9.06337 21.2675 8.2091 20.5361 7.84858L20.2025 7.68407L13.261 7.66914L6.31958 7.65414L6.54006 7.92274ZM14.399 9.48768C14.4607 9.54979 14.5274 9.68195 14.5472 9.78131C14.5774 9.93325 14.5559 9.98932 14.4128 10.1334L14.2424 10.3047H12.3352C10.318 10.3047 10.2056 10.2916 10.0926 10.0422C9.99291 9.82217 10.0191 9.68742 10.1963 9.50927L10.3622 9.34245L12.3245 9.35862C14.2018 9.37412 14.2916 9.3797 14.399 9.48768ZM4.29368 9.73673C4.53428 9.88427 4.84337 10.5189 4.93203 11.0473C5.07573 11.904 4.89992 13.0058 4.53972 13.5058C4.25412 13.9022 3.93197 14.0035 3.60125 13.8007C2.69025 13.2421 2.61016 10.6164 3.48003 9.82611C3.73565 9.59397 4.01139 9.56365 4.29368 9.73673ZM21.1231 11.6931C21.2712 11.8823 21.2712 12.1086 21.1231 12.2978L21.007 12.4463H17.3162H13.6254L13.5093 12.2978C13.4454 12.2161 13.3931 12.0801 13.3931 11.9954C13.3931 11.9108 13.4454 11.7747 13.5093 11.6931L13.6254 11.5446H17.3162H21.007L21.1231 11.6931ZM2.23623 15.9048C1.22564 16.1788 0.380989 17.3166 0.0802537 18.8091C-0.060138 19.5058 -0.0102023 20.8057 0.182199 21.4635C0.359468 22.0698 0.456929 22.2949 0.730651 22.7308C1.00476 23.1671 1.45531 23.6007 1.85255 23.8101C2.12695 23.9548 2.21012 23.9703 2.71659 23.9708C3.21953 23.9714 3.31027 23.955 3.60125 23.8113C4.86517 23.1872 5.67546 21.1664 5.43817 19.2302C5.16378 16.9914 3.72808 15.5003 2.23623 15.9048ZM5.18378 16.1422C5.47589 16.5029 5.73403 16.9408 5.94431 17.4324L6.08958 17.7721L10.2091 17.8003C14.6653 17.8308 14.4715 17.8157 14.5419 18.1382C14.5819 18.3212 14.4572 18.6122 14.3153 18.667C14.2654 18.6862 12.4474 18.702 10.2753 18.702H6.32592L6.3707 19.0542C6.44064 19.6039 6.4097 20.6531 6.30742 21.1993C6.13593 22.1155 5.74798 23.0071 5.24874 23.6329L4.97866 23.9714L13.4001 23.9857L21.8216 24L22.1804 23.8311C23.9337 23.0061 24.5763 19.6376 23.4104 17.384C23.0986 16.7813 22.6235 16.2764 22.1454 16.0398L21.7742 15.8559L13.351 15.8411L4.92788 15.8263L5.18378 16.1422ZM2.93505 17.9186C3.13311 18.0752 3.34227 18.5007 3.4492 18.9644C3.56258 19.4559 3.56163 20.4318 3.44736 20.9275C3.292 21.6012 2.94452 22.0825 2.61313 22.0832C2.28611 22.0839 1.96066 21.6481 1.79152 20.9831C1.50889 19.872 1.77846 18.2615 2.30959 17.8874C2.483 17.7653 2.75862 17.779 2.93505 17.9186ZM23.0151 17.9228C23.1863 18.0845 23.1899 18.3928 23.023 18.5716L22.9011 18.702H20.5545H18.2078L18.0703 18.5636C17.9001 18.3925 17.8916 18.1497 18.0489 17.9488L18.165 17.8003H20.5252C22.8713 17.8003 22.8862 17.801 23.0151 17.9228ZM18.9744 21.3117C19.1553 21.5232 19.1462 21.7172 18.9458 21.9187L18.782 22.0834H13.9553H9.12859L8.99106 21.9451C8.76066 21.7135 8.8157 21.3507 9.10567 21.19C9.18548 21.1457 10.6044 21.1315 14.0285 21.1406L18.8392 21.1535L18.9744 21.3117Z" fill="#5F1A1D"/>
</svg>
