<svg width="44" height="42" viewBox="0 0 44 42" fill="none" xmlns="http://www.w3.org/2000/svg">
<path fill-rule="evenodd" clip-rule="evenodd" d="M10.9791 11.0865L0 22.1731L0.925287 23.1045L1.85057 24.0359L11.9043 13.8837L21.9581 3.73141L32.0567 13.9284L42.1553 24.1253L43.0776 23.191L44 22.2567L32.9791 11.1284L21.9581 0L10.9791 11.0865ZM7.13417 5.9876C7.13417 8.85124 7.16331 11.1942 7.19897 11.1942C7.23455 11.1942 9.1488 9.29042 11.4529 6.9635L15.642 2.73278V1.75688V0.780992H11.3881H7.13417V5.9876ZM13.6008 15.8153L5.24355 24.2545V33.1272V42H10.6576H16.0717V34.1033V26.2066H22.0013H27.931V34.1033V42H33.3451H38.7591V33.1703V24.3406L30.3586 15.8583L21.958 7.37603L13.6008 15.8153ZM18.6498 35.405V42H22.0013H25.3529V35.405V28.8099H22.0013H18.6498V35.405Z" fill="white"/>
</svg>
