<svg width="49" height="48" viewBox="0 0 49 48" fill="none" xmlns="http://www.w3.org/2000/svg">
<path fill-rule="evenodd" clip-rule="evenodd" d="M8.54522 0.863742C7.53178 1.98964 7.40701 2.09382 7.07158 2.09434C6.68145 2.09486 6.13814 2.44182 5.9403 2.81695C5.83113 3.02383 5.77483 3.41717 5.77483 3.97321V4.81602H22.3327H38.8905V4.07979C38.8905 2.88877 38.4625 2.23474 37.6096 2.12261C37.2034 2.06921 37.077 1.9686 36.2387 1.03188L35.3153 0H22.319H9.3227L8.54522 0.863742ZM4.67614 7.19785C2.83085 9.82237 0.64724 12.9855 0.64724 13.0343C0.64724 13.0633 10.3868 13.087 22.2907 13.087C41.0458 13.087 43.9263 13.067 43.8754 12.9369C43.843 12.8543 42.7683 11.2766 41.4871 9.43102L39.1576 6.07551L22.3126 6.07394L5.4675 6.07237L4.67614 7.19785ZM0.0425053 14.402C-0.0789545 14.7122 0.0785052 15.9811 0.279977 16.3154C0.698944 17.0106 -1.00374 16.9608 22.3488 16.9603C43.4125 16.96 43.5395 16.9588 43.891 16.7486C44.3662 16.4647 44.5522 15.9805 44.5522 15.0272V14.2387H22.3294C2.29352 14.2387 0.100084 14.2548 0.0425053 14.402ZM3.31786 28.0062V37.7953H5.18526H7.05267L7.08141 30.0384L7.11014 22.2817L7.36235 22.0815C7.60794 21.8867 8.00138 21.8815 22.3445 21.8815C36.9321 21.8815 37.0765 21.8835 37.2881 22.0909C37.4834 22.2822 37.5018 22.4398 37.5018 23.923V25.5458L38.4365 25.5465C39.2888 25.547 39.9434 25.6184 40.8935 25.8145L41.2407 25.8861V22.0516V18.2171H22.2793H3.31786V28.0062ZM8.33863 30.4665V37.7953H15.0152H21.6917V30.4665V23.1378H15.0152H8.33863V30.4665ZM22.9736 30.4665V37.7953H24.5077H26.0417L26.1006 36.6174C26.1815 34.9987 26.5492 33.6638 27.3479 32.0893C28.3003 30.2119 29.629 28.7019 31.349 27.5421C32.4557 26.7958 34.2966 26.027 35.6233 25.7571L36.2199 25.6357V24.3867V23.1378H29.5968H22.9736V30.4665ZM36.8474 26.7998C31.0301 27.517 26.7208 32.7888 27.3525 38.4149C27.6408 40.9829 28.65 43.0565 30.4963 44.8745C34.1711 48.4928 39.9033 49.0314 44.2445 46.1662C45.1187 45.5892 46.5225 44.2134 47.1112 43.3566C48.5255 41.2985 49.2057 38.7022 48.9454 36.3569C48.3558 31.0455 44.0451 27.0218 38.6698 26.7656C38.0567 26.7364 37.2367 26.7518 36.8474 26.7998ZM34.0209 31.1169C34.0943 31.2154 34.2139 31.557 34.2868 31.876L34.4192 32.4558H39.6994C44.8371 32.4558 44.9853 32.4614 45.1932 32.6651C45.3107 32.7803 45.4068 32.92 45.4068 32.9756C45.4068 33.25 43.785 39.5313 43.69 39.6244C43.6203 39.693 41.9973 39.7512 39.2325 39.7845C35.4626 39.8299 34.8846 39.8577 34.8846 39.9939C34.8846 40.13 35.4543 40.1579 39.1576 40.2033C42.222 40.2408 43.4945 40.2915 43.6563 40.3825C44.0537 40.6058 44.5395 41.2341 44.6133 41.6202C44.9399 43.3259 43.0051 44.4831 41.669 43.3813C41.2105 43.0031 41.027 42.605 41.027 41.9883V41.4596L39.3445 41.4599L37.662 41.4602V42.0806C37.662 42.5438 37.6063 42.7741 37.4418 42.9898C36.5899 44.1075 35.1264 44.0728 34.3134 42.9157C34.0949 42.6048 34.069 42.4686 34.1119 41.8556C34.153 41.2681 34.1291 41.1237 33.9661 40.9792C33.2947 40.3838 33.5357 39.0899 34.382 38.7464L34.6877 38.6222L33.8827 35.382L33.0776 32.1417H32.1919C31.4484 32.1417 31.2716 32.108 31.0923 31.9323C30.8734 31.7178 30.8211 31.4445 30.9604 31.2429C31.1637 30.9485 31.5013 30.883 32.6768 30.9099C33.6747 30.9327 33.9109 30.9692 34.0209 31.1169ZM35.3553 36.1204L35.9528 38.5288L39.3624 38.5023L42.7719 38.4758L43.3366 36.2248C43.6471 34.9868 43.9035 33.915 43.9063 33.843C43.9102 33.7403 42.9274 33.7121 39.3345 33.7121H34.7577L35.3553 36.1204ZM0.00629159 39.8892V40.7267H13.2651H26.5237L26.4594 40.4912C26.4241 40.3616 26.3401 39.9848 26.2728 39.6536L26.1506 39.0516H13.0784H0.00629159V39.8892ZM35.4183 41.7072C35.0576 42.2467 35.7422 42.8779 36.2242 42.4505C36.4579 42.243 36.5016 41.7776 36.3054 41.5852C36.0848 41.3691 35.5999 41.4357 35.4183 41.7072ZM42.3496 41.7256C41.9896 42.2642 42.6841 42.8794 43.1678 42.4505C43.4015 42.243 43.4452 41.7776 43.249 41.5852C43.0209 41.3617 42.5431 41.4363 42.3496 41.7256Z" fill="white"/>
</svg>
