<svg width="42" height="42" viewBox="0 0 42 42" fill="none" xmlns="http://www.w3.org/2000/svg">
<path fill-rule="evenodd" clip-rule="evenodd" d="M6.95243 0.156207C6.8041 0.237517 6.65218 0.384828 6.61469 0.483517C6.54606 0.664138 5.73659 7.4611 5.73659 7.85679C5.73659 8.06845 5.75134 8.06897 12.139 8.06897C15.6604 8.06897 18.5415 8.05086 18.5415 8.02862C18.5415 8.00648 18.3571 6.40107 18.1317 4.4611C17.9063 2.52103 17.722 0.859759 17.722 0.769242C17.722 0.678828 17.5872 0.468724 17.4225 0.302379L17.1231 0L12.1725 0.00413803C8.07977 0.00755182 7.17524 0.0339309 6.95243 0.156207ZM29.3597 6.44503C29.1742 6.63238 29.0828 6.9329 28.9306 7.857C28.7389 9.02162 28.7347 9.03197 28.3972 9.17431C28.0602 9.31655 28.048 9.31148 27.0967 8.64165C25.6988 7.65745 25.6646 7.66293 24.2594 9.09476C22.8476 10.5333 22.8413 10.5756 23.8301 11.9873L24.5088 12.9565L24.3512 13.2904C24.1967 13.6174 24.1695 13.6283 23.0357 13.8125C21.3777 14.0819 21.4098 14.037 21.4098 16.0883C21.4098 17.0473 21.4547 17.7881 21.5204 17.9121C21.6732 18.2004 22.1253 18.3665 23.1805 18.5223C24.1685 18.6681 24.34 18.7527 24.429 19.1379C24.4765 19.3431 24.3512 19.5891 23.8232 20.3276C22.8553 21.6814 22.8657 21.7692 24.15 23.0926C24.6994 23.6586 25.2794 24.1907 25.439 24.2749C25.8298 24.4811 26.1113 24.3717 27.1996 23.5907C27.8857 23.0982 28.1277 22.9766 28.3231 23.0261C28.6915 23.1196 28.7379 23.2262 28.926 24.4138C29.1971 26.125 29.329 26.2132 31.5341 26.1561C32.8655 26.1216 32.9069 26.1137 33.134 25.8469C33.3023 25.6492 33.4152 25.2896 33.5402 24.5538C33.7564 23.2798 33.8249 23.1123 34.1635 23.0264C34.3893 22.9692 34.5873 23.0666 35.3179 23.5943C36.4084 24.382 36.6599 24.4807 37.0488 24.2731C37.4622 24.0525 39.2033 22.2446 39.3284 21.9061C39.4655 21.5356 39.422 21.4338 38.6428 20.2974C38.0187 19.3873 37.9902 19.32 38.1077 19.0336C38.2475 18.6927 38.2746 18.6813 39.3366 18.5176C39.7591 18.4524 40.2545 18.3522 40.4375 18.295C41.0251 18.1113 41.078 17.9308 41.078 16.1102C41.078 14.0338 41.1123 14.0821 39.444 13.8019C38.2974 13.6093 38.2798 13.6021 38.1428 13.2709C38.0063 12.9413 38.0152 12.9186 38.6186 12.0612C39.3978 10.954 39.4795 10.7438 39.2971 10.314C39.2199 10.1318 38.6965 9.52893 38.1342 8.97414C36.841 7.69852 36.7455 7.68362 35.5137 8.56552C35.0527 8.89552 34.6247 9.19655 34.5626 9.23462C34.4016 9.3331 33.8133 9.08824 33.758 8.89966C33.7323 8.81255 33.6374 8.30224 33.5469 7.76565C33.3657 6.69145 33.2808 6.47007 32.9898 6.31272C32.8803 6.25355 32.0889 6.2069 31.1947 6.2069C29.6622 6.2069 29.5857 6.21683 29.3597 6.44503ZM5.48264 9.9569C5.45918 10.0281 5.04594 13.5543 4.56438 17.7931C4.08271 22.0319 3.66332 25.6512 3.63239 25.8362L3.57604 26.1724H12.0832C19.8408 26.1724 20.5902 26.1577 20.5902 26.0056C20.5902 25.8096 18.8753 10.7859 18.7878 10.2155L18.7283 9.82759H12.1268C6.93666 9.82759 5.51614 9.85521 5.48264 9.9569ZM32.7294 12.4221C33.1948 12.5973 33.5077 12.8189 34.0191 13.3354C34.9088 14.2338 35.1713 14.8793 35.1803 16.1897C35.1862 17.0277 35.1544 17.1899 34.8622 17.8139C34.4491 18.6957 33.7773 19.3742 32.9035 19.7923C32.2822 20.0894 32.1247 20.1207 31.2439 20.1207C30.3624 20.1207 30.2058 20.0897 29.5818 19.7911C27.1524 18.629 26.5011 15.4777 28.2834 13.5084C29.4729 12.194 31.0809 11.8011 32.7294 12.4221ZM0.299429 28.2334L0 28.5358V34.9655V41.3952L0.299429 41.6976L0.598859 42H2.85713H5.11539L5.14428 37.6977L5.17317 33.3954L5.41503 33.1977C5.64306 33.0113 5.86648 33 9.32492 33C11.3424 33 13.0676 33.029 13.1588 33.0642C13.5984 33.2346 13.6244 33.5023 13.6244 37.8569V42H15.2122H16.8V37.754V33.5078L17.0515 33.254L17.3029 33H21H24.6971L24.9485 33.254L25.2 33.5078V37.754V42H26.7878H28.3756V37.8552C28.3756 33.6188 28.3916 33.4311 28.7765 33.1326C28.8971 33.039 29.8925 33.0057 32.6411 33.0033C36.1357 33.0002 36.3567 33.0111 36.585 33.1977L36.8268 33.3954L36.8557 37.6977L36.8846 42H39.1429H41.4011L41.7006 41.6976L42 41.3952V34.9655V28.5358L41.7006 28.2334L41.4011 27.931H21H0.598859L0.299429 28.2334ZM6.86341 38.3257V42H9.3745H11.8856L11.8586 38.3535L11.8317 34.7069L9.34756 34.6792L6.86341 34.6514V38.3257ZM18.4864 34.7833C18.4588 34.8559 18.4483 36.4976 18.4632 38.4318L18.4902 41.9483H21H23.5098V38.3276V34.7069L21.023 34.6792C19.0826 34.6576 18.5254 34.6804 18.4864 34.7833ZM30.1854 34.7242C30.1478 34.762 30.1171 36.4146 30.1171 38.3966V42H32.6268H35.1366V38.3276V34.6552H32.6952C31.3523 34.6552 30.2229 34.6862 30.1854 34.7242Z" fill="white"/>
</svg>
