<svg width="42" height="42" viewBox="0 0 42 42" fill="none" xmlns="http://www.w3.org/2000/svg">
<path fill-rule="evenodd" clip-rule="evenodd" d="M18.334 0.0201019C16.722 0.143522 15.2412 0.80294 13.9255 1.98332L13.4544 2.40584L12.7819 2.2355C11.9448 2.0235 10.5924 2.00616 9.73686 2.19655C8.53822 2.46328 7.19348 3.25072 6.33511 4.18853C5.80519 4.76734 5.25599 5.69142 4.99439 6.44411C4.62115 7.51824 4.29073 7.40624 7.83243 7.40624H10.907L10.9462 7.59112C10.9677 7.69277 11.1544 9.40298 11.3612 11.3915C11.5679 13.38 11.7509 15.0482 11.7679 15.0985C11.7892 15.1618 11.9296 15.1694 12.2224 15.1229C13.1657 14.9736 14.1154 14.5925 14.9169 14.0418L15.2733 13.797L15.7963 14.0524C18.4209 15.3343 21.7466 14.8875 23.8329 12.973L24.3481 12.5002L24.7288 12.6636C25.5285 13.007 26.09 13.1087 27.1934 13.1103C28.053 13.1115 28.3837 13.0763 28.8989 12.9288C29.5344 12.747 30.5121 12.2992 30.9497 11.9894L31.1788 11.8273L31.77 12.1173C33.4498 12.9412 35.2872 12.9461 36.9551 12.1311C38.2447 11.501 39.0738 10.6921 39.7189 9.43462C40.1676 8.55991 40.3184 7.87289 40.3178 6.70779C40.3173 5.90655 40.2813 5.60621 40.1257 5.10547C39.8309 4.15714 39.409 3.42968 38.7409 2.71833C37.5333 1.43253 36.16 0.835069 34.4121 0.835069C33.5094 0.835069 32.868 0.958817 32.0299 1.29489C31.6702 1.43919 31.4413 1.49021 31.3727 1.44149C29.8369 0.350756 28.7988 -0.00323451 27.1523 0.00227091C25.8522 0.00670812 24.5918 0.384528 23.6023 1.06654L23.2481 1.31059L22.8026 1.02932C22.3116 0.719126 21.3189 0.31304 20.7008 0.169406C20.0968 0.0290585 19.066 -0.0360205 18.334 0.0201019ZM2.5419 9.97407C2.54133 10.0306 2.4867 10.7054 2.4205 11.4737C2.35438 12.242 2.2995 13.0277 2.2986 13.2198L2.29688 13.569H5.70117C8.36924 13.569 9.10571 13.5468 9.1067 13.4663C9.10744 13.4099 9.02639 12.5779 8.92664 11.6175L8.74535 9.87135H5.64416C3.2185 9.87135 2.54272 9.8937 2.5419 9.97407ZM2.05078 16.0795C2.05078 16.1045 1.58936 21.8982 1.02539 28.9545C0.461426 36.0109 0 41.8144 0 41.851C0 41.8878 2.73664 41.9178 6.08147 41.9178H12.1629L12.1177 41.5686C12.0929 41.3766 11.4707 35.5527 10.7349 28.6268L9.39742 16.0341H5.72406C3.70379 16.0341 2.05078 16.0545 2.05078 16.0795ZM15.6523 20.4884C14.1946 22.2604 12.9358 23.7935 12.855 23.8952C12.713 24.0741 12.7218 24.2085 13.1216 27.9579C13.3491 30.0906 13.5352 31.8855 13.5352 31.9464C13.5352 32.0363 13.8928 32.0574 15.4219 32.0574H17.3086V33.2899V34.5225H15.5859H13.8633V34.7356C13.8633 35.0965 14.6004 41.8495 14.6482 41.927C14.6742 41.9691 20.4807 42 28.3466 42H42V29.6333V17.2667L40.2979 17.2689L38.5957 17.2711L35.3555 21.2023L32.1152 25.1334L32.0939 21.2L32.0727 17.2667H30.3576H28.6425L25.2109 21.3917L21.7793 25.5167L21.7581 21.3917L21.7368 17.2667H20.0197H18.3026L15.6523 20.4884ZM24.7551 33.3105L24.7778 34.5225H22.3147H19.8516V33.2887V32.0549L22.292 32.0767L24.7324 32.0985L24.7551 33.3105ZM32.1562 33.2899V34.5225H29.6953H27.2344V33.2899V32.0574H29.6953H32.1562V33.2899ZM39.5391 33.2899V34.5225H37.0781H34.6172V33.2899V32.0574H37.0781H39.5391V33.2899Z" fill="white"/>
</svg>
