<svg width="224" height="56" viewBox="0 0 224 56" fill="none" xmlns="http://www.w3.org/2000/svg">
<g clip-path="url(#clip0_2003_3)">
<path fill-rule="evenodd" clip-rule="evenodd" d="M143.706 0.230065C142.669 0.790623 142.635 1.03198 142.562 8.31252C142.507 13.8295 142.562 15.5848 142.841 17.26C143.42 20.7332 144.788 23.057 146.915 24.1768C148.912 25.2288 152.631 25.5854 154.557 24.9096C156.042 24.3889 157.907 22.5271 158.83 20.6461L159.578 19.1202V13.3043C159.578 8.36039 159.517 7.24442 159.173 5.86048C158.423 2.84585 156.834 1.33619 153.603 0.565818C151.808 0.13813 144.345 -0.115083 143.706 0.230065ZM184.253 0.381501L183.723 0.827085L183.715 8.85519C183.709 15.7696 183.76 17.0976 184.086 18.4276C184.836 21.4814 185.499 22.5631 187.389 23.8149C190.452 25.8431 194.422 25.9072 197.167 23.9726C198.231 23.2226 199.715 21.0031 200.219 19.4085C200.713 17.8454 200.915 10.4986 200.531 8.04969C200.196 5.90879 199.383 3.6556 198.626 2.77159C196.926 0.783466 195.045 0.248408 189.127 0.0683402C185.007 -0.0569242 184.754 -0.0408184 184.253 0.381501ZM63.2749 0.411922C61.7277 0.53495 61.4085 0.634267 60.9099 1.14852L60.3334 1.74286L60.8097 2.43136C61.1912 2.98275 61.654 3.23551 63.1317 3.69966C65.3156 4.38549 66.2105 5.10509 66.9371 6.75992C67.4479 7.92331 67.454 8.02822 67.5194 16.6037L67.5854 25.2715H68.5612C69.3121 25.2715 69.6624 25.1427 70.0795 24.7132L70.6216 24.1551L70.5584 16.3809C70.5019 9.44661 70.5369 8.46799 70.8813 7.32159C71.5535 5.08294 73.3115 3.58984 75.288 3.57888C76.5067 3.57216 76.9269 3.18765 77.0619 1.9567L77.1746 0.92573L76.3336 0.657531C75.3841 0.354883 66.1727 0.181749 63.2749 0.411922ZM167.12 0.410133C165.679 0.513029 165.043 0.650149 164.896 0.889717C164.774 1.08924 164.689 5.99245 164.687 12.9869L164.684 24.7486L165.21 25.0387C165.843 25.3872 166.705 25.2044 167.295 24.5962C167.663 24.218 167.721 23.8601 167.707 22.0563C167.693 20.3198 167.773 19.7876 168.167 18.9792C169.134 16.9933 170.365 16.0957 172.735 15.6476C177.631 14.722 178.666 14.2608 179.83 12.4863C180.871 10.8988 181.088 10.1114 181.087 7.93584C181.086 6.35505 180.986 5.70054 180.623 4.88878C179.633 2.67921 177.774 1.25947 175.113 0.681241C173.604 0.353317 169.748 0.22246 167.12 0.410133ZM210.638 0.428028C207.496 0.70182 207.61 0.400291 207.59 8.49505C207.573 15.2607 207.455 16.4102 206.461 19.5185C205.786 21.627 205.144 22.2824 203.538 22.5018L202.432 22.6528L202.562 26.3669C202.634 28.4094 202.756 30.3577 202.834 30.6959C202.968 31.2809 203.038 31.3111 204.253 31.3111H205.532V28.2913V25.2715L210.801 25.2742C216.184 25.2769 217.393 25.4205 218.931 26.2399C219.885 26.7481 220.49 27.707 220.742 29.112C221 30.5472 221.712 31.3111 222.791 31.3111C223.465 31.3111 223.53 31.2437 223.757 30.3172C223.891 29.7708 224 27.8207 224 25.9837V22.6441L222.877 22.5332C221.019 22.3493 221.107 22.9269 221.265 12.0072C221.417 1.48897 221.398 1.30108 220.133 0.64903C219.469 0.307014 213.594 0.170118 210.638 0.428028ZM80.9157 0.756623C80.5031 1.0671 80.4879 1.45497 80.4301 13.1743L80.3703 25.2715H87.6295H94.8886L95.2511 24.702C96.1121 23.3494 95.0794 22.6291 91.9439 22.3958C89.2089 22.1925 87.7266 21.6096 86.1574 20.1205C85.0059 19.0275 83.6403 16.4055 83.6403 15.2875V14.5346L87.9315 14.5312C90.9238 14.529 92.3848 14.4435 92.7585 14.2489C93.5109 13.8568 93.8029 12.7068 93.3362 11.9736L92.9786 11.4117L88.2552 11.3513L83.5317 11.2911L83.4648 8.71874C83.3887 5.79807 83.6184 4.69484 84.4414 4.02826C84.9831 3.58983 85.2723 3.56501 89.6393 3.58312C92.4206 3.59476 94.4298 3.51087 94.6801 3.37308C94.9091 3.24692 95.225 2.82393 95.3821 2.43338C95.6232 1.8339 95.6183 1.63191 95.3493 1.13868L95.0307 0.554187L88.1861 0.495134C82.5216 0.44637 81.2681 0.491331 80.9157 0.756623ZM99.7167 0.554187C99.7156 0.615701 99.7137 6.17722 99.7119 12.9129L99.7091 25.1597L100.758 25.2257C101.605 25.2791 101.887 25.1995 102.229 24.811C102.633 24.3513 102.654 23.8733 102.712 13.9521L102.773 3.57395H105.302C111.657 3.57395 112.783 4.48391 113.226 9.97832C113.366 11.7188 113.404 15.3112 113.323 19.0642L113.189 25.2715H114.369C116.369 25.2715 116.232 26.1743 116.232 13.0545V1.54042L115.698 0.991494L115.165 0.442344H107.442C103.194 0.442344 99.7178 0.492673 99.7167 0.554187ZM125.755 0.706965C125.317 0.827084 124.779 1.12906 124.56 1.37802C124.128 1.86902 124.143 1.41985 124.287 9.50164C124.36 13.5727 124.168 15.7022 123.474 18.5609C122.854 21.1139 121.912 22.1744 119.982 22.492C119.353 22.5956 119.027 22.8014 118.764 23.2599C118.223 24.2028 118.308 24.7289 119.053 25.0465C120.222 25.5449 121.666 25.4196 122.933 24.7099C124.838 23.6424 125.926 21.8811 126.696 18.6182C127.105 16.8846 127.161 15.9657 127.181 10.6201C127.198 6.14724 127.276 4.44991 127.483 4.07725C127.736 3.62205 127.923 3.57485 129.439 3.58379C132.996 3.6046 134.195 4.72616 134.706 8.51026C134.872 9.73942 134.934 12.8377 134.885 17.4054L134.809 24.4144L135.322 24.8429C135.671 25.1349 136.173 25.2715 136.897 25.2715H137.959L137.954 13.9194C137.949 2.82908 137.855 1.0199 137.269 0.636727C136.87 0.37658 126.735 0.438541 125.755 0.706965ZM20.5845 2.71366L20.5219 4.76128L18.568 5.29477C11.7912 7.14511 5.82153 12.1962 2.61259 18.7951C1.42605 21.2351 0.57238 23.8623 0.216918 26.1663C-0.107039 28.2674 -0.0614111 32.5205 0.308825 34.693C1.63268 42.4645 6.51724 49.3974 13.2432 53.0516C17.5179 55.3739 19.9583 55.9989 24.7588 56C28.5969 56.0011 30.7378 55.6305 33.8437 54.4277C38.3235 52.693 39.59 51.2431 38.0293 49.6361C37.6799 49.2764 37.2282 48.9823 37.0255 48.9823C36.8228 48.9823 35.7642 49.4247 34.673 49.9656C30.9468 51.8128 27.6442 52.5069 23.781 52.2548C21.1355 52.0821 19.4036 51.6748 16.8319 50.6206C14.0419 49.4766 12.1325 48.1327 9.76681 45.648C6.50942 42.2267 4.53396 38.2181 3.89452 33.7316C3.56578 31.426 3.72395 27.1722 4.21543 25.1026C5.9621 17.746 11.3677 11.6835 18.3237 9.27952C20.6618 8.47157 20.6008 8.44405 20.6753 10.338C20.7244 11.5846 20.8163 11.9725 21.0745 12.0233C21.3732 12.0819 27.6926 8.34697 29.3481 7.13347C30.3169 6.42327 30.109 5.88911 28.4525 4.83487C24.6356 2.40564 21.5844 0.66603 21.1401 0.66603C20.6677 0.66603 20.6442 0.752821 20.5845 2.71366ZM153.19 3.38114C156.055 4.36849 156.949 7.13549 156.723 14.3145C156.598 18.3039 156.394 19.1774 155.286 20.4739C153.857 22.1448 151.507 23.0438 149.82 22.5643C147.111 21.7941 145.753 18.3513 145.759 12.2644C145.764 5.64171 147.247 3.22142 151.343 3.14671C151.953 3.13575 152.784 3.24111 153.19 3.38114ZM194.043 3.35407C195.237 3.69564 196.737 5.1742 197.148 6.41455C197.76 8.26354 198.03 12.1226 197.756 15.1137C197.449 18.4806 197.065 19.7919 196.086 20.8289C195.142 21.8286 194.121 22.3455 192.766 22.5101C187.466 23.1543 185.26 16.0704 187.601 5.92266C187.815 4.99526 189.192 3.84148 190.757 3.27913C191.321 3.07625 193.223 3.11965 194.043 3.35407ZM175.665 3.99448C178.248 5.20239 178.927 8.63061 177.024 10.8612C175.914 12.1637 175.282 12.3932 172.832 12.3856C169.039 12.374 167.728 11.3587 167.727 8.43018C167.725 5.92557 168.743 4.498 170.972 3.87928C172.478 3.46099 174.638 3.514 175.665 3.99448ZM215.56 4.18775C216.624 4.67225 217.488 5.68264 217.886 6.90666C218.051 7.41264 218.134 10.0897 218.134 14.909V22.1511L217.588 22.3643C216.945 22.6164 215.101 22.7128 212.325 22.6401C210.471 22.5913 210.27 22.5405 209.677 21.9722L209.036 21.357L209.462 19.7912C210.453 16.1527 210.543 15.3797 210.679 9.41664L210.813 3.51579L212.691 3.62607C213.9 3.69698 214.922 3.89718 215.56 4.18775ZM34.3956 4.34903C33.88 4.72079 33.5415 5.40192 32.2352 8.69682C31.478 10.6071 31.3509 11.1267 31.5258 11.6C31.7957 12.3306 32.081 12.5138 32.9559 12.5181C33.8296 12.5223 34.0077 12.2552 35.4146 8.82991C36.5938 5.9589 36.7137 5.14468 36.0571 4.4687C35.5417 3.93811 35.0179 3.90031 34.3956 4.34903ZM40.2742 12.368C37.6634 15.0336 37.4359 15.4725 38.1336 16.4979C38.3765 16.8551 38.692 16.9951 39.2536 16.9951C39.9585 16.9951 40.2681 16.7558 42.392 14.5695C44.5156 12.3829 44.7481 12.0642 44.7481 11.3386C44.7481 10.7603 44.6121 10.4355 44.2651 10.1855C43.2936 9.48487 42.873 9.71482 40.2742 12.368ZM47.0295 18.9866C44.166 20.1601 42.6147 20.9752 42.3778 21.4308C41.7097 22.7161 42.5562 23.8997 43.9324 23.6039C44.3214 23.5205 45.8095 22.9304 47.2396 22.2927C50.0166 21.0544 50.5941 20.5175 50.3273 19.4226C50.1982 18.8936 49.3895 18.3214 48.8118 18.3502C48.6679 18.3576 47.866 18.6439 47.0295 18.9866ZM15.6332 19.3002C14.6577 19.6431 14.0404 20.7938 14.2299 21.9162C14.3361 22.545 14.9795 23.3413 17.4964 25.9594L20.6306 29.2196L20.634 30.4331C20.6386 31.9492 21.2676 33.1683 22.5091 34.0667C25.9818 36.5793 30.8253 32.6776 29.2014 28.6756C28.5153 26.9843 26.7957 25.7189 25.1838 25.7189C24.3288 25.7189 24.1363 25.5713 20.9528 22.4755C19.1185 20.6916 17.4725 19.232 17.295 19.232C17.1177 19.232 16.8422 19.1873 16.6831 19.1325C16.5238 19.0777 16.0515 19.1533 15.6332 19.3002ZM43.9735 29.4006C43.5455 30.073 43.7288 31.2126 44.317 31.5365C44.5384 31.6587 46.2751 31.7584 48.1765 31.7584C52.0285 31.7584 52.3527 31.641 52.3527 30.247C52.3527 28.9416 52.069 28.8505 47.9968 28.8505C44.3346 28.8505 44.3224 28.8521 43.9735 29.4006ZM158.138 36.1035C158.064 36.1847 145.597 36.2836 130.436 36.3232C115.274 36.3628 99.0071 36.5082 94.2868 36.646C89.5665 36.7838 82.4779 36.9565 78.5344 37.0301C70.5228 37.1795 70.3865 37.1851 70.3865 37.3732C70.3865 37.5515 75.5442 37.8212 80.8262 37.9194C85.0122 37.9973 86.1114 38.1601 86.2956 38.7294C86.3678 38.952 86.524 38.928 86.9724 38.6254C87.4181 38.3248 87.6562 38.2874 87.9823 38.467C88.3011 38.6426 88.7059 38.5988 89.5839 38.2937C90.6842 37.9112 90.7876 37.9091 91.2076 38.2592C91.6032 38.5889 92.1751 38.6211 96.0676 38.5321C99.7445 38.448 100.633 38.3619 101.403 38.0152C102.318 37.6031 102.326 37.6034 102.326 38.0523C102.326 38.4981 102.405 38.503 107.378 38.3632C111.413 38.25 137.532 37.9452 138.828 37.9962C142.559 38.1431 152.27 38.133 155.232 37.9792C157.383 37.8675 160.317 37.7376 161.751 37.6904C163.185 37.6432 164.693 37.4989 165.102 37.3701C165.648 37.198 166.082 37.2106 166.732 37.417C167.433 37.6398 170.953 37.6566 183.695 37.4978C192.539 37.3875 204.027 37.2842 209.225 37.2681C217.058 37.2437 218.788 37.1824 219.329 36.9099C219.951 36.5957 219.865 36.5744 217.373 36.4283C213.849 36.2221 158.31 35.9174 158.138 36.1035ZM42.4791 37.4005C42.0295 38.061 42.0513 38.8242 42.5338 39.321C43.1146 39.919 47.5349 41.8637 48.6101 41.9945C49.7163 42.129 50.3972 41.6396 50.3972 40.7101C50.3972 39.9378 49.7641 39.3738 48.0072 38.582C43.9461 36.7516 43.0507 36.5601 42.4791 37.4005ZM38.2676 43.9077C37.7716 44.4515 37.6708 45.0783 37.995 45.6053C38.4232 46.3016 42.6286 50.5353 43.0188 50.6628C43.2491 50.738 43.708 50.6669 44.0385 50.5045C44.5115 50.2723 44.6538 50.0316 44.7068 49.374C44.7702 48.5868 44.6505 48.4072 42.6427 46.2768C39.8355 43.2982 39.1585 42.9316 38.2676 43.9077ZM94.0876 47.8079C93.9689 48.2694 93.7729 49.1078 93.6521 49.6712C93.5313 50.2347 93.3697 50.8637 93.2932 51.0693C93.1854 51.3585 93.2799 51.4428 93.7119 51.4428C94.1864 51.4428 94.3057 51.3003 94.5073 50.4922C94.6379 49.9694 94.773 49.4408 94.8078 49.3178C94.8426 49.1948 95.1322 49.6227 95.4516 50.2685C95.771 50.9143 96.1606 51.4428 96.3174 51.4428C96.4743 51.4428 96.8313 50.9398 97.1111 50.3251C97.3908 49.7104 97.6763 49.2644 97.7458 49.3339C97.8151 49.4037 97.9739 49.8815 98.0987 50.396C98.2692 51.0993 98.4441 51.3487 98.8048 51.4026C99.4032 51.4918 99.4006 51.2375 98.7774 48.8704C98.4548 47.6444 98.2038 47.081 97.9805 47.081C97.8012 47.081 97.3469 47.6775 96.9708 48.4065L96.287 49.7321L95.6098 48.3506C95.2372 47.5907 94.7909 46.9691 94.6179 46.9691C94.4378 46.9691 94.2112 47.3275 94.0876 47.8079ZM102.705 47.5344C101.361 48.9181 102.132 51.4587 103.89 51.4408C104.165 51.4379 104.855 51.435 105.422 51.4343L106.454 51.4332V49.306C106.454 47.0295 106.285 46.6877 105.398 47.1762C105.108 47.336 104.914 47.3418 104.825 47.1935C104.556 46.7447 103.272 46.9512 102.705 47.5344ZM109.713 49.1903V51.4428H112.763H115.813L115.751 49.2619C115.693 47.2514 115.654 47.081 115.254 47.081C114.865 47.081 114.813 47.2521 114.755 48.7027L114.692 50.3244H113.941H113.19V48.6311C113.19 47.0033 113.171 46.9407 112.701 47.0094C112.252 47.0751 112.207 47.2145 112.148 48.7027L112.084 50.3244H111.452H110.819L110.755 48.7027C110.696 47.2145 110.651 47.0751 110.202 47.0094C109.723 46.9394 109.713 46.9825 109.713 49.1903ZM119.208 47.1105C119.125 47.1968 119.056 48.2068 119.056 49.3552C119.056 50.8738 119.13 51.444 119.328 51.4473C119.477 51.4498 120.061 50.9212 120.624 50.273L121.65 49.0941L121.656 50.2685C121.663 51.3701 121.697 51.4428 122.207 51.4428C122.748 51.4428 122.75 51.4346 122.75 49.331C122.75 48.1694 122.66 47.1624 122.551 47.0928C122.442 47.0232 121.861 47.5341 121.26 48.2285L120.167 49.4903L120.101 48.2877C120.052 47.4169 119.941 47.0671 119.697 47.0194C119.512 46.9832 119.292 47.0241 119.208 47.1105ZM126.161 47.1105C126.078 47.1968 126.009 48.2068 126.009 49.3552C126.009 51.433 126.012 51.4428 126.552 51.4428C127.041 51.4428 127.095 51.3534 127.095 50.5481C127.095 49.6746 127.113 49.6533 127.856 49.6533C128.598 49.6533 128.616 49.6746 128.616 50.5481C128.616 51.3464 128.673 51.4428 129.144 51.4428C129.659 51.4428 129.674 51.3936 129.742 49.4098C129.79 47.9905 129.73 47.3076 129.542 47.1478C129.091 46.7638 128.616 47.1273 128.616 47.8569C128.616 48.4803 128.556 48.5349 127.869 48.5349C127.186 48.5349 127.117 48.4732 127.055 47.8097C126.99 47.1183 126.515 46.7465 126.161 47.1105ZM133.939 47.2456C133.209 47.6666 132.976 48.1529 132.969 49.272C132.963 50.1186 133.074 50.4606 133.495 50.8937C133.976 51.3889 134.651 51.5985 135.243 51.4361C135.363 51.4035 135.88 51.3894 136.392 51.4053L137.323 51.4339L137.261 49.2686L137.199 47.1033L135.786 47.0492C135.01 47.0194 134.178 47.1078 133.939 47.2456ZM147.431 47.1349C147.36 47.2078 147.302 48.2068 147.302 49.3552V51.4428H148.59C150.009 51.4428 150.561 51.1015 150.561 50.224C150.561 49.9403 150.41 49.5793 150.226 49.4218C149.993 49.2232 149.96 49.0642 150.117 48.9022C150.456 48.5535 150.39 47.7348 149.996 47.3981C149.643 47.0962 147.665 46.8933 147.431 47.1349ZM153.712 47.1554C153.652 47.217 153.603 48.5591 153.603 50.1381V53.0086H154.146C154.634 53.0086 154.689 52.9185 154.689 52.1244V51.2402L155.763 51.3713C156.752 51.4918 156.891 51.4478 157.502 50.8187C159.07 49.2044 157.511 46.3656 155.488 47.1514C155.121 47.2943 154.766 47.3268 154.701 47.2239C154.571 47.0212 153.888 46.9738 153.712 47.1554ZM162.1 47.2814C160.186 48.3739 160.924 51.452 163.108 51.4827C163.641 51.49 164.276 51.3297 164.612 51.1031C165.16 50.7333 165.171 50.6935 164.8 50.4143C164.528 50.2097 164.286 50.1846 164.016 50.3331C163.241 50.7604 162.077 50.4597 162.077 49.8323C162.077 49.7339 162.81 49.6533 163.706 49.6533H165.336V48.8904C165.336 47.4149 163.482 46.4929 162.1 47.2814ZM168.616 48.9418C168.049 51.427 168.05 51.49 168.649 51.4026C169.043 51.3449 169.177 51.1239 169.337 50.2685C169.447 49.684 169.601 49.206 169.681 49.206C169.759 49.206 170.053 49.7093 170.333 50.3244C170.613 50.9395 170.955 51.4428 171.094 51.4428C171.232 51.4428 171.574 50.9395 171.854 50.3244C172.134 49.7093 172.428 49.206 172.506 49.206C172.586 49.206 172.74 49.684 172.85 50.2685C173.022 51.1898 173.126 51.3402 173.627 51.3999L174.205 51.4686L173.697 49.414C172.964 46.4481 172.707 46.3242 171.749 48.4765L171.183 49.7515L170.649 48.7519C170.355 48.2018 170.032 47.601 169.929 47.4165C169.827 47.2319 169.592 47.0503 169.407 47.0127C169.149 46.9604 168.965 47.4093 168.616 48.9418ZM177.486 47.6229C176.976 48.1488 176.851 48.4707 176.851 49.2679C176.851 50.7156 177.56 51.4428 178.972 51.4428C179.578 51.4428 180.207 51.2999 180.449 51.1073C180.867 50.7751 180.867 50.7684 180.448 50.4354C180.165 50.2103 179.953 50.1734 179.807 50.3235C179.332 50.8123 177.938 50.4459 177.938 49.8323C177.938 49.7339 178.671 49.6533 179.567 49.6533C181.172 49.6533 181.197 49.6446 181.197 49.0794C181.197 48.2672 180.849 47.6981 180.115 47.3069C179.106 46.7698 178.211 46.8776 177.486 47.6229ZM184.384 47.1183C184.304 47.2002 184.239 48.2068 184.239 49.3552C184.239 51.433 184.241 51.4428 184.782 51.4428C185.271 51.4428 185.325 51.3534 185.325 50.5481C185.325 49.6746 185.343 49.6533 186.085 49.6533C186.83 49.6533 186.846 49.6726 186.846 50.5629C186.846 51.4073 186.886 51.4674 187.4 51.4017C187.947 51.3319 187.955 51.3026 187.998 49.206L188.041 47.081H187.498C187.027 47.081 186.946 47.1928 186.887 47.9164C186.829 48.6398 186.756 48.7394 186.344 48.66C186.082 48.6094 185.746 48.5606 185.597 48.5515C185.434 48.5416 185.325 48.2204 185.325 47.752C185.325 47.142 185.237 46.9691 184.927 46.9691C184.708 46.9691 184.463 47.0362 184.384 47.1183ZM191.336 47.1183C191.257 47.2002 191.191 48.2068 191.191 49.3552C191.191 51.1954 191.236 51.4424 191.572 51.4397C191.781 51.4379 192.343 50.9395 192.821 50.3325C193.299 49.7252 193.763 49.2232 193.853 49.2172C193.943 49.2109 194.016 49.7162 194.016 50.3401C194.016 51.388 194.053 51.4686 194.505 51.4026C194.964 51.3352 194.997 51.2115 195.057 49.3382C195.093 48.2119 195.026 47.248 194.903 47.1212C194.757 46.9716 194.358 47.2619 193.701 47.9956C193.16 48.5998 192.716 49.1695 192.715 49.2619C192.713 49.3543 192.615 49.4297 192.495 49.4297C192.376 49.4297 192.278 48.876 192.278 48.1994C192.278 47.1554 192.217 46.9691 191.88 46.9691C191.66 46.9691 191.416 47.0362 191.336 47.1183ZM149.149 48.3112C149.149 48.4924 148.978 48.6745 148.769 48.7161C148.502 48.7689 148.388 48.6481 148.388 48.3112C148.388 47.9744 148.502 47.8536 148.769 47.9064C148.978 47.948 149.149 48.13 149.149 48.3112ZM163.829 48.0954C164.533 48.4832 164.302 48.7586 163.272 48.7586C162.257 48.7586 162.019 48.4985 162.674 48.1054C163.16 47.8137 163.315 47.8124 163.829 48.0954ZM179.67 48.0875C179.767 48.0875 179.903 48.2385 179.972 48.4231C180.073 48.6935 179.888 48.7586 179.017 48.7586C178.42 48.7586 177.938 48.6555 177.938 48.5278C177.938 48.2354 178.822 47.8601 179.205 47.9898C179.364 48.0435 179.574 48.0875 179.67 48.0875ZM105.026 48.439C105.831 49.2677 105.051 50.7393 103.957 50.4566C103.649 50.3772 103.289 50.0674 103.157 49.7681C102.642 48.6045 104.147 47.5341 105.026 48.439ZM135.996 48.5201C136.34 49.1823 136.266 49.7656 135.78 50.2186C135.1 50.8521 134.179 50.443 134.088 49.467C134.05 49.0612 134.135 48.585 134.277 48.4085C134.66 47.9341 135.727 48.0034 135.996 48.5201ZM156.862 48.7573C157.089 49.3218 157.075 49.5151 156.774 49.9875C156.556 50.3302 156.213 50.5481 155.892 50.5481C155.353 50.5481 154.689 49.8198 154.689 49.2297C154.689 48.6852 155.375 48.0875 156 48.0875C156.453 48.0875 156.655 48.2452 156.862 48.7573ZM149.257 50.1007C149.257 50.3989 149.112 50.5481 148.823 50.5481C148.533 50.5481 148.388 50.3989 148.388 50.1007C148.388 49.8025 148.533 49.6533 148.823 49.6533C149.112 49.6533 149.257 49.8025 149.257 50.1007Z" fill="white"/>
<path fill-rule="evenodd" clip-rule="evenodd" d="M163.163 36.1201C158.921 36.2051 143.521 36.3198 128.942 36.3751C114.363 36.4301 98.5726 36.5885 93.8523 36.7267C89.132 36.8652 82.0434 37.0372 78.0998 37.1092C70.1497 37.2546 69.952 37.2629 69.952 37.4539C69.952 37.6322 75.1097 37.9019 80.3917 38.0001C84.5777 38.078 85.6769 38.2408 85.8611 38.8101C85.9333 39.0327 86.0895 39.0087 86.5379 38.7061C86.9836 38.4055 87.2217 38.3681 87.5478 38.5477C87.8666 38.7233 88.2714 38.6795 89.1494 38.3744C90.2594 37.9887 90.35 37.9872 90.7828 38.3482C91.192 38.6891 91.7147 38.7184 95.6431 38.6193C99.2859 38.5276 100.204 38.437 100.968 38.0943C101.883 37.6839 101.891 37.6843 101.891 38.1337C101.891 38.5804 101.968 38.5849 107.052 38.4448C111.181 38.331 137.107 38.0268 138.394 38.0769C142.156 38.2238 151.835 38.2138 154.798 38.0599C156.949 37.9483 159.882 37.8183 161.316 37.7711C162.75 37.7239 164.258 37.5796 164.668 37.4508C165.215 37.2785 165.646 37.2913 166.297 37.4991C167.002 37.7241 170.47 37.7404 183.261 37.5792C192.104 37.4678 203.592 37.3638 208.791 37.3481C216.567 37.3246 218.358 37.262 218.894 36.9947C219.513 36.6862 219.41 36.6621 216.83 36.5122C215.336 36.4254 205.901 36.2898 195.863 36.2111C185.825 36.1324 176.096 36.0449 174.244 36.0167C172.392 35.9885 167.405 36.0351 163.163 36.1201Z" fill="#D1E338"/>
</g>
<defs>
<clipPath id="clip0_2003_3">
<rect width="224" height="56" fill="white"/>
</clipPath>
</defs>
</svg>
