<svg width="261" height="64" viewBox="0 0 261 64" fill="none" xmlns="http://www.w3.org/2000/svg">
<g clip-path="url(#clip0_2003_4)">
<path fill-rule="evenodd" clip-rule="evenodd" d="M167.443 0.260384C166.235 0.894813 166.195 1.16798 166.11 9.40797C166.046 15.652 166.11 17.6386 166.435 19.5345C167.11 23.4654 168.704 26.0955 171.182 27.3629C173.509 28.5535 177.842 28.9571 180.087 28.1922C181.816 27.6029 183.99 25.4958 185.065 23.3669L185.937 21.6398V15.0576C185.937 9.46214 185.866 8.19911 185.465 6.63278C184.591 3.22089 182.74 1.51228 178.975 0.640383C176.884 0.156333 168.188 -0.130249 167.443 0.260384ZM214.687 0.431776L214.07 0.93608L214.061 10.0221C214.053 17.8477 214.113 19.3507 214.493 20.8561C215.366 24.3123 216.139 25.5366 218.342 26.9533C221.911 29.2487 226.537 29.3214 229.734 27.1317C230.974 26.2829 232.703 23.771 233.291 21.9662C233.866 20.1971 234.102 11.8821 233.654 9.1105C233.264 6.68746 232.316 4.13734 231.435 3.13684C229.453 0.886713 227.263 0.281143 220.367 0.0773462C215.566 -0.0644257 215.272 -0.0461975 214.687 0.431776ZM73.7266 0.466206C71.9238 0.605447 71.5519 0.717852 70.9709 1.29988L70.2992 1.97253L70.8542 2.75177C71.2987 3.37582 71.838 3.6619 73.5597 4.18721C76.1043 4.96341 77.1471 5.77784 77.9937 7.65075C78.5888 8.96746 78.5959 9.08619 78.6721 18.7917L78.7491 28.6019H79.8861C80.761 28.6019 81.1691 28.456 81.6552 27.97L82.2868 27.3383L82.2131 18.5396C82.1473 10.6915 82.1881 9.58391 82.5893 8.28645C83.3726 5.75278 85.421 4.06291 87.724 4.05051C89.144 4.04291 89.6336 3.60772 89.7908 2.21456L89.9222 1.04772L88.9422 0.744181C87.8359 0.40165 77.103 0.2057 73.7266 0.466206ZM194.724 0.464181C193.045 0.580637 192.304 0.735826 192.133 1.00697C191.991 1.23279 191.892 6.78215 191.89 14.6983L191.886 28.01L192.5 28.3383C193.237 28.7327 194.241 28.5259 194.929 27.8376C195.357 27.4095 195.425 27.0044 195.408 24.9629C195.392 22.9976 195.485 22.3953 195.944 21.4804C197.071 19.2328 198.505 18.2168 201.267 17.7097C206.972 16.6621 208.178 16.1401 209.534 14.1318C210.747 12.3351 211 11.4439 210.999 8.98164C210.998 7.19253 210.882 6.45177 210.458 5.53303C209.304 3.03228 207.138 1.42545 204.038 0.771017C202.28 0.399878 197.787 0.251776 194.724 0.464181ZM245.43 0.484435C241.77 0.794308 241.903 0.453042 241.879 9.61455C241.859 17.2718 241.722 18.5728 240.564 22.0907C239.778 24.4771 239.03 25.2188 237.158 25.4672L235.869 25.6381L236.021 29.8416C236.104 32.1533 236.247 34.3583 236.337 34.7411C236.494 35.4031 236.575 35.4373 237.992 35.4373H239.481V32.0196V28.6019L245.62 28.6049C251.893 28.6079 253.302 28.7705 255.094 29.6978C256.206 30.273 256.91 31.3583 257.204 32.9484C257.505 34.5727 258.334 35.4373 259.592 35.4373C260.377 35.4373 260.453 35.3611 260.717 34.3125C260.873 33.694 261 31.4869 261 29.4079V25.6282L259.692 25.5026C257.526 25.2945 257.629 25.9482 257.813 13.5895C257.99 1.68519 257.968 1.47253 256.494 0.734561C255.721 0.347473 248.875 0.192536 245.43 0.484435ZM94.2812 0.856332C93.8005 1.20772 93.7827 1.64671 93.7154 14.9105L93.6458 28.6019H102.104H110.562L110.984 27.9573C111.988 26.4264 110.784 25.6112 107.131 25.3472C103.944 25.1171 102.217 24.4573 100.389 22.772C99.047 21.535 97.4559 18.5674 97.4559 17.3021V16.45L102.456 16.4462C105.942 16.4437 107.645 16.3469 108.08 16.1267C108.957 15.6829 109.297 14.3814 108.753 13.5515L108.337 12.9156L102.833 12.8472L97.3293 12.7791L97.2513 9.86771C97.1627 6.56215 97.4303 5.31354 98.3893 4.55911C99.0205 4.06291 99.3574 4.03481 104.446 4.05532C107.687 4.06848 110.028 3.97354 110.319 3.81759C110.586 3.67481 110.954 3.19608 111.137 2.75405C111.418 2.07557 111.412 1.84696 111.099 1.28874L110.728 0.627219L102.753 0.560384C96.1524 0.505194 94.6919 0.55608 94.2812 0.856332ZM116.188 0.627219C116.187 0.696839 116.184 6.99126 116.182 14.6145L116.179 28.4753L117.401 28.55C118.388 28.6105 118.717 28.5203 119.115 28.0806C119.586 27.5603 119.611 27.0193 119.678 15.7907L119.749 4.04494H122.696C130.101 4.04494 131.412 5.07481 131.928 11.2933C132.091 13.2632 132.136 17.329 132.042 21.5766L131.885 28.6019H133.26C135.591 28.6019 135.431 29.6236 135.431 14.7748V1.74342L134.809 1.12216L134.188 0.500637H125.189C120.239 0.500637 116.189 0.557599 116.188 0.627219ZM146.527 0.80013C146.017 0.936079 145.39 1.27785 145.135 1.55962C144.632 2.11532 144.649 1.60696 144.817 10.7538C144.901 15.3614 144.678 17.7715 143.87 21.0069C143.147 23.8963 142.049 25.0966 139.8 25.456C139.068 25.5733 138.688 25.8062 138.381 26.3252C137.751 27.3922 137.85 27.9877 138.718 28.3472C140.08 28.9112 141.763 28.7695 143.239 27.9662C145.459 26.7581 146.726 24.7647 147.623 21.0717C148.1 19.1097 148.165 18.0697 148.188 12.0196C148.208 6.95734 148.3 5.03633 148.541 4.61455C148.835 4.09937 149.053 4.04595 150.819 4.05607C154.964 4.07962 156.361 5.34899 156.956 9.63176C157.15 11.0229 157.222 14.5295 157.165 19.6991L157.076 27.6317L157.674 28.1168C158.081 28.4472 158.666 28.6019 159.509 28.6019H160.747L160.741 15.7538C160.735 3.2019 160.626 1.15431 159.942 0.720637C159.478 0.426207 147.669 0.496333 146.527 0.80013ZM23.9846 3.07127L23.9117 5.38873L21.635 5.99253C13.7388 8.0867 6.78312 13.8034 3.04414 21.272C1.66161 24.0335 0.666925 27.0069 0.252748 29.6145C-0.12472 31.9925 -0.071555 36.8062 0.359837 39.2649C1.90237 48.0606 7.59375 55.9071 15.4307 60.0428C20.4115 62.6712 23.255 63.3785 28.8484 63.3798C33.3205 63.3811 35.815 62.9616 39.434 61.6003C44.6537 59.637 46.1294 57.996 44.3109 56.1773C43.9038 55.7702 43.3775 55.4373 43.1413 55.4373C42.9051 55.4373 41.6717 55.938 40.4003 56.5502C36.0585 58.6408 32.2104 59.4264 27.7092 59.1411C24.6266 58.9456 22.6087 58.4846 19.6122 57.2914C16.3613 55.9968 14.1365 54.4757 11.3801 51.6636C7.58464 47.7915 5.28287 43.2545 4.53781 38.1768C4.15477 35.5674 4.33907 30.753 4.91173 28.4107C6.94692 20.0847 13.2454 13.2232 21.3504 10.5024C24.0747 9.58797 24.0036 9.55683 24.0904 11.7004C24.1476 13.1113 24.2547 13.5502 24.5555 13.6077C24.9036 13.674 32.2669 9.44695 34.1957 8.07354C35.3246 7.26974 35.0823 6.66519 33.1522 5.47202C28.7049 2.72266 25.1497 0.753801 24.632 0.753801C24.0816 0.753801 24.0542 0.852029 23.9846 3.07127ZM178.494 3.82671C181.831 4.94418 182.874 8.07582 182.611 16.2009C182.465 20.7161 182.227 21.7047 180.936 23.172C179.271 25.0631 176.532 26.0806 174.567 25.5378C171.41 24.6662 169.829 20.7697 169.835 13.8806C169.841 6.38519 171.569 3.64595 176.342 3.56139C177.052 3.54899 178.021 3.66823 178.494 3.82671ZM226.094 3.79608C227.486 4.18266 229.234 5.85607 229.712 7.25987C230.425 9.35252 230.74 13.7201 230.422 17.1054C230.063 20.916 229.616 22.4001 228.475 23.5738C227.375 24.7052 226.185 25.2902 224.607 25.4766C218.431 26.2057 215.861 18.1882 218.588 6.70316C218.838 5.65354 220.442 4.34772 222.266 3.71127C222.923 3.48165 225.139 3.53076 226.094 3.79608ZM204.681 4.52088C207.691 5.88797 208.482 9.76797 206.265 12.2925C204.971 13.7667 204.235 14.0264 201.38 14.0178C196.96 14.0047 195.433 12.8556 195.431 9.54113C195.43 6.70645 196.616 5.09076 199.212 4.3905C200.968 3.91709 203.484 3.97709 204.681 4.52088ZM251.166 4.73962C252.405 5.28797 253.413 6.43152 253.876 7.81683C254.068 8.38949 254.165 11.4194 254.165 16.8738V25.0702L253.529 25.3115C252.779 25.5968 250.632 25.7059 247.396 25.6236C245.237 25.5684 245.002 25.511 244.311 24.8677L243.564 24.1715L244.061 22.3993C245.215 18.2814 245.32 17.4064 245.478 10.6576L245.635 3.97911L247.823 4.10392C249.231 4.18418 250.422 4.41076 251.166 4.73962ZM40.077 4.92215C39.4762 5.34291 39.0818 6.11379 37.5598 9.8429C36.6775 12.0049 36.5294 12.593 36.7332 13.1287C37.0476 13.9556 37.38 14.1629 38.3995 14.1677C39.4175 14.1725 39.6251 13.8702 41.2643 9.99354C42.6383 6.74417 42.778 5.82265 42.0129 5.05759C41.4124 4.45709 40.8021 4.4143 40.077 4.92215ZM46.9266 13.9978C43.8846 17.0148 43.6195 17.5115 44.4324 18.672C44.7155 19.0763 45.0831 19.2348 45.7375 19.2348C46.5588 19.2348 46.9195 18.9639 49.3942 16.4895C51.8686 14.0148 52.1395 13.654 52.1395 12.8328C52.1395 12.1783 51.981 11.8107 51.5767 11.5277C50.4448 10.7348 49.9547 10.9951 46.9266 13.9978ZM54.7977 21.4887C51.4613 22.8168 49.6537 23.7393 49.3777 24.255C48.5993 25.7097 49.5856 27.0492 51.1891 26.7145C51.6423 26.6201 53.3762 25.9522 55.0425 25.2305C58.2782 23.829 58.9511 23.2214 58.6403 21.9821C58.4899 21.3834 57.5476 20.7358 56.8744 20.7685C56.7068 20.7768 55.7724 21.1009 54.7977 21.4887ZM18.2155 21.8436C17.0788 22.2317 16.3596 23.534 16.5803 24.8044C16.7041 25.516 17.4537 26.4173 20.3864 29.3803L24.0383 33.0702L24.0423 34.4436C24.0477 36.1596 24.7806 37.5393 26.2271 38.556C30.2735 41.3998 35.917 36.9839 34.0249 32.4545C33.2254 30.5403 31.2218 29.1082 29.3436 29.1082C28.3474 29.1082 28.1231 28.9411 24.4137 25.4373C22.2765 23.4183 20.3585 21.7664 20.1517 21.7664C19.9451 21.7664 19.6241 21.7158 19.4388 21.6538C19.2532 21.5917 18.7028 21.6773 18.2155 21.8436ZM51.237 33.275C50.7382 34.036 50.9519 35.3259 51.6372 35.6925C51.8952 35.8307 53.9187 35.9436 56.1342 35.9436C60.6225 35.9436 61.0003 35.8107 61.0003 34.233C61.0003 32.7555 60.6696 32.6525 55.9248 32.6525C51.6577 32.6525 51.6436 32.6543 51.237 33.275ZM184.259 40.8613C184.172 40.9532 169.647 41.0651 151.981 41.1099C134.315 41.1548 115.361 41.3193 109.861 41.4753C104.361 41.6312 96.1015 41.8267 91.5065 41.9099C82.1716 42.0791 82.0129 42.0854 82.0129 42.2983C82.0129 42.5001 88.0225 42.8054 94.1769 42.9165C99.0544 43.0046 100.335 43.1889 100.55 43.8332C100.634 44.0851 100.816 44.058 101.338 43.7155C101.858 43.3753 102.135 43.333 102.515 43.5363C102.887 43.735 103.358 43.6854 104.381 43.3401C105.663 42.9072 105.784 42.9049 106.273 43.3011C106.734 43.6742 107.4 43.7107 111.936 43.6099C116.22 43.5148 117.255 43.4173 118.152 43.0249C119.219 42.5586 119.228 42.5588 119.228 43.0669C119.228 43.5715 119.32 43.577 125.114 43.4188C129.816 43.2907 160.249 42.9456 161.76 43.0034C166.107 43.1697 177.422 43.1583 180.874 42.9841C183.38 42.8578 186.798 42.7107 188.468 42.6573C190.139 42.6039 191.897 42.4406 192.373 42.2948C193.01 42.1001 193.515 42.1143 194.272 42.3479C195.09 42.6001 199.191 42.6191 214.038 42.4393C224.342 42.3145 237.728 42.1975 243.785 42.1793C252.911 42.1517 254.928 42.0824 255.557 41.774C256.283 41.4183 256.182 41.3943 253.278 41.2289C249.173 40.9955 184.459 40.6507 184.259 40.8613ZM49.4957 42.3292C48.9719 43.0768 48.9972 43.9406 49.5595 44.5029C50.2362 45.1796 55.3866 47.3806 56.6395 47.5287C57.9284 47.6808 58.7218 47.1269 58.7218 46.075C58.7218 45.2008 57.9841 44.5626 55.937 43.6664C51.2051 41.5948 50.1618 41.3781 49.4957 42.3292ZM44.5886 49.694C44.0107 50.3094 43.8932 51.0188 44.2709 51.6153C44.7699 52.4034 49.6699 57.195 50.1246 57.3393C50.3929 57.4244 50.9276 57.3438 51.3127 57.16C51.8638 56.8973 52.0296 56.6249 52.0914 55.8806C52.1653 54.9897 52.0258 54.7864 49.6863 52.3752C46.4155 49.0041 45.6266 48.5892 44.5886 49.694ZM109.629 54.1082C109.491 54.6304 109.262 55.5793 109.121 56.217C108.981 56.8547 108.792 57.5666 108.703 57.7993C108.578 58.1266 108.688 58.2221 109.191 58.2221C109.744 58.2221 109.883 58.0608 110.118 57.1461C110.27 56.5545 110.428 55.9563 110.468 55.817C110.509 55.6778 110.846 56.1621 111.218 56.893C111.59 57.6238 112.044 58.2221 112.227 58.2221C112.41 58.2221 112.826 57.6527 113.152 56.957C113.478 56.2613 113.81 55.7565 113.891 55.8352C113.972 55.9142 114.157 56.455 114.302 57.0373C114.501 57.8332 114.705 58.1155 115.125 58.1765C115.822 58.2775 115.819 57.9897 115.093 55.3107C114.717 53.9231 114.425 53.2854 114.165 53.2854C113.956 53.2854 113.427 53.9606 112.988 54.7856L112.192 56.2859L111.402 54.7223C110.968 53.8623 110.448 53.1588 110.247 53.1588C110.037 53.1588 109.773 53.5644 109.629 54.1082ZM119.67 53.7985C118.104 55.3646 119.001 58.2401 121.05 58.2198C121.371 58.2165 122.174 58.2132 122.836 58.2125L124.038 58.2112V55.8036C124.038 53.2271 123.841 52.8403 122.808 53.3932C122.47 53.574 122.243 53.5806 122.14 53.4127C121.826 52.9049 120.33 53.1385 119.67 53.7985ZM127.836 55.6727V58.2221H131.389H134.942L134.87 55.7537C134.803 53.4783 134.758 53.2854 134.291 53.2854C133.838 53.2854 133.777 53.479 133.711 55.1208L133.636 56.9563H132.761H131.886V55.0398C131.886 53.1975 131.864 53.1266 131.317 53.2044C130.794 53.2788 130.741 53.4365 130.673 55.1208L130.598 56.9563H129.861H129.124L129.049 55.1208C128.981 53.4365 128.928 53.2788 128.405 53.2044C127.847 53.1251 127.836 53.174 127.836 55.6727ZM138.899 53.3188C138.802 53.4165 138.722 54.5595 138.722 55.8593C138.722 57.578 138.808 58.2233 139.038 58.2271C139.212 58.2299 139.892 57.6317 140.549 56.898L141.743 55.5639L141.752 56.893C141.759 58.1398 141.799 58.2221 142.393 58.2221C143.023 58.2221 143.025 58.2127 143.025 55.832C143.025 54.5173 142.921 53.3775 142.794 53.2988C142.667 53.2201 141.99 53.7983 141.289 54.5841L140.016 56.0122L139.939 54.6512C139.882 53.6656 139.753 53.2697 139.469 53.2158C139.253 53.1747 138.997 53.2211 138.899 53.3188ZM147 53.3188C146.903 53.4165 146.823 54.5595 146.823 55.8593C146.823 58.2109 146.826 58.2221 147.456 58.2221C148.025 58.2221 148.089 58.1208 148.089 57.2094C148.089 56.2208 148.11 56.1968 148.975 56.1968C149.84 56.1968 149.861 56.2208 149.861 57.2094C149.861 58.113 149.927 58.2221 150.476 58.2221C151.076 58.2221 151.093 58.1664 151.172 55.9211C151.229 54.3147 151.159 53.5418 150.94 53.3611C150.414 52.9264 149.861 53.3378 149.861 54.1636C149.861 54.8692 149.791 54.9309 148.991 54.9309C148.195 54.9309 148.114 54.8611 148.041 54.1102C147.966 53.3277 147.413 52.9069 147 53.3188ZM156.063 53.4717C155.212 53.9482 154.941 54.4985 154.932 55.7651C154.926 56.7233 155.055 57.1104 155.546 57.6006C156.106 58.1611 156.893 58.3983 157.582 58.2145C157.722 58.1775 158.324 58.1616 158.921 58.1795L160.006 58.2119L159.933 55.7613L159.861 53.3107L158.215 53.2494C157.31 53.2158 156.342 53.3158 156.063 53.4717ZM171.783 53.3464C171.7 53.4289 171.633 54.5595 171.633 55.8593V58.2221H173.134C174.787 58.2221 175.43 57.8357 175.43 56.8426C175.43 56.5216 175.255 56.113 175.04 55.9347C174.769 55.7099 174.73 55.5299 174.914 55.3466C175.308 54.952 175.232 54.0254 174.773 53.6444C174.361 53.3026 172.056 53.073 171.783 53.3464ZM179.101 53.3697C179.032 53.4393 178.975 54.9583 178.975 56.7454V59.9942H179.608C180.176 59.9942 180.241 59.8922 180.241 58.9935V57.9927L181.492 58.1411C182.644 58.2775 182.806 58.2276 183.518 57.5157C185.345 55.6887 183.528 52.4758 181.172 53.3651C180.744 53.5269 180.33 53.5636 180.254 53.4471C180.102 53.2178 179.307 53.1641 179.101 53.3697ZM188.876 53.5122C186.645 54.7487 187.505 58.2325 190.05 58.2671C190.67 58.2755 191.411 58.094 191.802 57.8375C192.441 57.419 192.454 57.374 192.022 57.058C191.705 56.8264 191.422 56.798 191.108 56.9661C190.205 57.4497 188.848 57.1094 188.848 56.3993C188.848 56.2879 189.703 56.1968 190.747 56.1968H192.646V55.3332C192.646 53.6633 190.486 52.6198 188.876 53.5122ZM196.467 55.3914C195.807 58.2041 195.808 58.2755 196.506 58.1765C196.965 58.1112 197.121 57.8611 197.308 56.893C197.436 56.2314 197.616 55.6904 197.708 55.6904C197.8 55.6904 198.142 56.2601 198.468 56.9563C198.794 57.6525 199.193 58.2221 199.354 58.2221C199.516 58.2221 199.914 57.6525 200.241 56.9563C200.567 56.2601 200.909 55.6904 201.001 55.6904C201.093 55.6904 201.273 56.2314 201.401 56.893C201.602 57.9357 201.722 58.1059 202.306 58.1735L202.98 58.2512L202.388 55.9259C201.534 52.5692 201.234 52.4289 200.119 54.8649L199.458 56.3079L198.837 55.1765C198.494 54.554 198.117 53.874 197.998 53.6651C197.879 53.4563 197.605 53.2507 197.39 53.2082C197.089 53.1489 196.875 53.657 196.467 55.3914ZM206.803 53.8988C206.208 54.494 206.063 54.8583 206.063 55.7606C206.063 57.399 206.89 58.2221 208.534 58.2221C209.24 58.2221 209.973 58.0603 210.255 57.8423C210.742 57.4664 210.742 57.4588 210.254 57.0818C209.924 56.8271 209.677 56.7854 209.507 56.9552C208.954 57.5084 207.329 57.0937 207.329 56.3993C207.329 56.2879 208.184 56.1968 209.228 56.1968C211.098 56.1968 211.127 56.1869 211.127 55.5471C211.127 54.6279 210.722 53.9839 209.866 53.5411C208.69 52.9332 207.647 53.0552 206.803 53.8988ZM214.84 53.3277C214.747 53.4203 214.671 54.5595 214.671 55.8593C214.671 58.2109 214.674 58.2221 215.304 58.2221C215.873 58.2221 215.937 58.1208 215.937 57.2094C215.937 56.2208 215.958 56.1968 216.823 56.1968C217.69 56.1968 217.709 56.2185 217.709 57.2261C217.709 58.1818 217.755 58.2499 218.354 58.1755C218.992 58.0965 219.001 58.0633 219.051 55.6904L219.101 53.2854H218.468C217.92 53.2854 217.825 53.412 217.757 54.2309C217.689 55.0497 217.604 55.1623 217.124 55.0725C216.819 55.0152 216.427 54.9601 216.253 54.9497C216.064 54.9385 215.937 54.575 215.937 54.0449C215.937 53.3545 215.834 53.1588 215.473 53.1588C215.217 53.1588 214.932 53.2347 214.84 53.3277ZM222.941 53.3277C222.848 53.4203 222.772 54.5595 222.772 55.8593C222.772 57.9421 222.825 58.2216 223.215 58.2185C223.459 58.2165 224.114 57.6525 224.671 56.9654C225.228 56.278 225.769 55.7099 225.873 55.7031C225.978 55.696 226.063 56.2679 226.063 56.974C226.063 58.1601 226.107 58.2512 226.633 58.1765C227.168 58.1003 227.207 57.9603 227.276 55.8401C227.318 54.5654 227.24 53.4745 227.096 53.3309C226.927 53.1616 226.462 53.4902 225.696 54.3206C225.066 55.0044 224.549 55.6492 224.547 55.7537C224.546 55.8583 224.43 55.9436 224.291 55.9436C224.152 55.9436 224.038 55.317 224.038 54.5512C224.038 53.3697 223.968 53.1588 223.574 53.1588C223.319 53.1588 223.034 53.2347 222.941 53.3277ZM173.785 54.6778C173.785 54.8828 173.585 55.0889 173.342 55.136C173.031 55.1958 172.899 55.059 172.899 54.6778C172.899 54.2965 173.031 54.1598 173.342 54.2196C173.585 54.2666 173.785 54.4727 173.785 54.6778ZM190.89 54.4335C191.71 54.8725 191.441 55.1841 190.241 55.1841C189.058 55.1841 188.781 54.8897 189.544 54.4449C190.111 54.1147 190.292 54.1132 190.89 54.4335ZM209.348 54.4246C209.461 54.4246 209.619 54.5955 209.699 54.8044C209.817 55.1104 209.601 55.1841 208.587 55.1841C207.891 55.1841 207.329 55.0674 207.329 54.9228C207.329 54.592 208.359 54.1671 208.806 54.314C208.991 54.3747 209.235 54.4246 209.348 54.4246ZM122.375 54.8223C123.312 55.7603 122.403 57.4259 121.128 57.1059C120.77 57.016 120.35 56.6654 120.196 56.3266C119.596 55.0097 121.35 53.7983 122.375 54.8223ZM158.46 54.9142C158.861 55.6636 158.774 56.3239 158.208 56.8365C157.416 57.5535 156.343 57.0904 156.236 55.9859C156.192 55.5266 156.291 54.9876 156.457 54.7879C156.902 54.2509 158.147 54.3294 158.46 54.9142ZM182.772 55.1826C183.036 55.8216 183.02 56.0403 182.67 56.575C182.416 56.9628 182.016 57.2094 181.642 57.2094C181.015 57.2094 180.241 56.3851 180.241 55.7173C180.241 55.1011 181.04 54.4246 181.768 54.4246C182.295 54.4246 182.531 54.6031 182.772 55.1826ZM173.911 56.7031C173.911 57.0406 173.743 57.2094 173.405 57.2094C173.068 57.2094 172.899 57.0406 172.899 56.7031C172.899 56.3656 173.068 56.1968 173.405 56.1968C173.743 56.1968 173.911 56.3656 173.911 56.7031Z" fill="black"/>
<path fill-rule="evenodd" clip-rule="evenodd" d="M190.114 40.8802C185.171 40.9764 167.228 41.1063 150.241 41.1688C133.254 41.2311 114.855 41.4103 109.355 41.5668C103.855 41.7235 95.5953 41.9182 91.0004 41.9997C81.7371 42.1642 81.5067 42.1736 81.5067 42.3898C81.5067 42.5916 87.5164 42.8969 93.6708 43.008C98.5482 43.0961 99.829 43.2804 100.044 43.9247C100.128 44.1766 100.31 44.1496 100.832 43.807C101.352 43.4668 101.629 43.4245 102.009 43.6278C102.38 43.8265 102.852 43.7769 103.875 43.4316C105.168 42.9951 105.274 42.9934 105.778 43.402C106.255 43.7878 106.864 43.8209 111.441 43.7088C115.686 43.605 116.756 43.5025 117.646 43.1146C118.712 42.6501 118.722 42.6506 118.722 43.1592C118.722 43.6647 118.811 43.6698 124.735 43.5113C129.545 43.3825 159.754 43.0382 161.253 43.0949C165.637 43.2612 176.915 43.2498 180.367 43.0756C182.874 42.9493 186.291 42.8022 187.962 42.7488C189.633 42.6954 191.39 42.5321 191.867 42.3863C192.505 42.1913 193.008 42.2058 193.766 42.4409C194.587 42.6956 198.628 42.7141 213.532 42.5316C223.836 42.4055 237.222 42.2878 243.279 42.2701C252.339 42.2435 254.426 42.1726 255.051 41.8701C255.772 41.5209 255.652 41.4936 252.646 41.324C250.905 41.2258 239.912 41.0723 228.215 40.9832C216.519 40.8941 205.184 40.7951 203.026 40.7632C200.867 40.7313 195.057 40.784 190.114 40.8802Z" fill="#D1E338"/>
</g>
<defs>
<clipPath id="clip0_2003_4">
<rect width="261" height="64" fill="white"/>
</clipPath>
</defs>
</svg>
