<svg width="223" height="85" viewBox="0 0 223 85" fill="none" xmlns="http://www.w3.org/2000/svg">
<path d="M103.211 40.2879C99.9966 40.2879 97.3149 39.2051 95.1845 37.0396C93.0728 34.893 92.017 32.2285 92.017 29.0368C92.017 25.845 93.0728 23.1523 95.1845 21.0339C97.3243 18.8778 99.9966 17.7856 103.211 17.7856C105.164 17.7856 106.958 18.247 108.612 19.1603C110.265 20.0735 111.546 21.3163 112.471 22.8792L108.808 25.0071C108.275 24.0373 107.518 23.2841 106.528 22.738C105.537 22.1919 104.435 21.9189 103.202 21.9189C101.109 21.9189 99.4173 22.578 98.1278 23.8961C96.8571 25.2424 96.2217 26.9466 96.2217 29.0273C96.2217 31.1081 96.8571 32.784 98.1278 34.1304C99.4173 35.4485 101.118 36.1075 103.202 36.1075C104.435 36.1075 105.547 35.8345 106.537 35.2884C107.528 34.7423 108.285 33.9985 108.798 33.0476L112.461 35.1754C111.536 36.7478 110.247 37.9811 108.602 38.8944C106.948 39.8077 105.154 40.269 103.202 40.269V40.2879H103.211Z" fill="#5F1A1D"/>
<path d="M113.399 18.2188H129.246V22.2956H123.425V39.8548H119.174V22.2956H113.399V18.2188Z" fill="#5F1A1D"/>
<path d="M135.857 30.9293V35.7781H144.93V39.8548H131.606V18.2188H144.771V22.2956H135.848V26.909H144.005V30.9293H135.848H135.857Z" fill="#5F1A1D"/>
<path d="M156.473 28.7261L164.751 39.8548H159.855L152.165 29.7147V39.8548H147.914V18.2188H152.165V27.7658L159.547 18.2188H164.443L156.473 28.7261Z" fill="#5F1A1D"/>
<path d="M165.422 39.8548V35.9005C166.739 36.0888 167.702 35.8063 168.309 35.0813C168.926 34.3564 169.234 33.0006 169.234 31.014V18.2188H183.876V39.8548H179.662V22.2956H173.448V30.8822C173.448 34.6106 172.598 37.1338 170.897 38.452C169.449 39.61 167.627 40.0808 165.422 39.8548Z" fill="#5F1A1D"/>
<path d="M193.113 34.1403C194.43 35.4584 196.075 36.1175 198.065 36.1175C200.055 36.1175 201.7 35.4584 203.017 34.1403C204.344 32.8033 205.017 31.0992 205.017 29.0373C205.017 26.9753 204.354 25.2806 203.017 23.9342C201.681 22.5973 200.027 21.9194 198.065 21.9194C196.103 21.9194 194.44 22.5879 193.113 23.9342C191.777 25.2806 191.113 26.9753 191.113 29.0373C191.113 31.0992 191.777 32.7939 193.113 34.1403ZM206.008 37.0401C203.83 39.1962 201.186 40.2884 198.065 40.2884C194.944 40.2884 192.3 39.2056 190.123 37.0401C187.974 34.837 186.89 32.1631 186.89 29.0373C186.89 25.9114 187.965 23.2281 190.123 21.0626C192.3 18.8783 194.944 17.7861 198.065 17.7861C201.186 17.7861 203.83 18.8783 206.008 21.0626C208.185 23.2187 209.269 25.8832 209.269 29.0373C209.269 32.1913 208.175 34.8558 206.008 37.0401Z" fill="#5F1A1D"/>
<path d="M101.243 44.7222C104.486 44.7222 107.158 45.8049 109.27 47.9704C111.381 50.0888 112.437 52.7627 112.437 55.9733C112.437 59.1839 111.381 61.8295 109.27 63.9762C107.158 66.1322 104.486 67.2244 101.243 67.2244C99.2906 67.2244 97.5059 66.7631 95.8614 65.8498C94.2169 64.9365 92.9368 63.6937 92.0117 62.1308L95.6745 60.003C96.1884 60.9445 96.9453 61.6977 97.9357 62.2438C98.9262 62.7899 100.038 63.0629 101.243 63.0629C102.972 63.0629 104.42 62.6016 105.626 61.6883C106.831 60.775 107.616 59.5322 107.98 57.9693H98.3842V53.9867H107.98C107.616 52.4144 106.831 51.181 105.626 50.2677C104.42 49.3544 102.963 48.8931 101.243 48.8931C100.038 48.8931 98.9355 49.1661 97.9544 49.7122C96.9639 50.2583 96.2164 51.0209 95.6745 51.9813L92.0117 49.8534C92.9368 48.2811 94.2262 47.0477 95.8707 46.1345C97.5246 45.2212 99.3093 44.7598 101.243 44.7598V44.7222Z" fill="#5F1A1D"/>
<path d="M123.974 55.653L132.252 66.7817H127.356L119.666 56.6416V66.7817H115.415V45.1457H119.666V54.6926L127.057 45.1457H131.944L123.974 55.653Z" fill="#5F1A1D"/>
<path d="M142.719 67.2143C139.505 67.2143 136.823 66.1316 134.692 63.9661C132.581 61.8195 131.525 59.155 131.525 55.9632C131.525 52.7715 132.581 50.0788 134.692 47.9604C136.832 45.8043 139.505 44.7121 142.719 44.7121C144.672 44.7121 146.466 45.1735 148.12 46.0867C149.773 47 151.054 48.2428 151.979 49.8057L148.316 51.9335C147.783 50.9638 147.026 50.2106 146.036 49.6645C145.045 49.1184 143.943 48.8454 142.71 48.8454C140.616 48.8454 138.925 49.5044 137.636 50.8226C136.365 52.1689 135.73 53.8731 135.73 55.9538C135.73 58.0346 136.365 59.7105 137.636 61.0568C138.925 62.375 140.626 63.034 142.71 63.034C143.943 63.034 145.055 62.761 146.045 62.2149C147.036 61.6688 147.793 60.925 148.306 59.9741L151.969 62.1019C151.044 63.6742 149.755 64.9076 148.11 65.8209C146.466 66.7342 144.662 67.1955 142.71 67.1955V67.2143H142.719Z" fill="#5F1A1D"/>
<path d="M170.683 45.1459V66.782H166.431V49.2321H158.835V66.782H154.583V45.1459H170.683Z" fill="#5F1A1D"/>
<path d="M178.922 57.8559V62.7047H187.994V66.7909H174.68V45.1548H187.845V49.2316H178.922V53.845H187.069V57.8653H178.922V57.8559Z" fill="#5F1A1D"/>
<path d="M195.243 55.6816H199.027C199.934 55.6816 200.681 55.3709 201.279 54.7401C201.877 54.1093 202.167 53.3372 202.167 52.4051C202.167 51.473 201.868 50.6727 201.279 50.0607C200.681 49.4488 199.934 49.1286 199.027 49.1286H195.243V55.6816ZM190.992 45.146H199.018C201.074 45.146 202.811 45.8427 204.241 47.2456C205.652 48.6485 206.362 50.362 206.362 52.4051C206.362 54.4482 205.652 56.1618 204.241 57.5646C202.811 58.9675 201.064 59.6642 199.018 59.6642H195.234V66.7726H190.982L190.992 45.146Z" fill="#5F1A1D"/>
<path d="M207.143 45.1457H222.99V49.2319H217.169V66.7817H212.927V49.2319H207.143V45.1457Z" fill="#5F1A1D"/>
<path d="M38.0379 49.8628C37.0755 49.1096 35.7113 49.1849 34.8423 50.0323L26.9281 57.7245L31.2636 45.6919C31.6748 44.5433 31.1889 43.2628 30.1144 42.6885L20.3781 37.5007L33.1137 37.9244C34.3284 37.9621 35.3936 37.0959 35.5992 35.9001L37.496 24.9974L41.0373 37.2936C41.3737 38.4611 42.523 39.2143 43.7283 39.0448L54.6419 37.4913L44.0927 44.6657C43.0836 45.3435 42.7379 46.6805 43.2705 47.7727L48.1199 57.7151L38.0379 49.8628ZM81.1878 39.412L71.4048 28.6222C70.5919 27.7184 69.237 27.5583 68.2279 28.2456L60.2949 33.6405C60.3043 28.4904 59.5287 22.8602 57.8842 17.1263C56.1463 11.0912 53.6515 5.66809 50.7269 1.16765C50.0354 0.103738 48.6619 -0.291698 47.5126 0.226135L34.2724 6.24242C33.1698 6.74142 32.5998 7.98422 32.9362 9.1517L35.5992 18.3974C30.7217 16.7968 25.1621 15.7988 19.2101 15.5917C12.9591 15.3845 7.05376 16.0907 1.89597 17.5029C0.671923 17.8513 -0.131647 19.0376 0.0178542 20.2992L1.61565 34.808C1.74646 36.0131 2.74625 36.9452 3.96095 36.9829L13.5384 37.2936C10.511 41.4551 7.84799 46.4639 5.82038 52.0754C3.68998 57.9881 2.53135 63.8443 2.27906 69.211C2.223 70.482 3.08263 71.6118 4.32536 71.866L18.556 74.8224C19.7427 75.0672 20.9294 74.3987 21.3405 73.2501L24.5921 64.2021C27.6009 68.373 31.5159 72.478 36.2065 76.1405C41.1401 80.0007 46.3446 82.91 51.3342 84.8213C52.5209 85.2732 53.857 84.793 54.4831 83.682L61.6778 70.9998C62.2758 69.9453 62.0142 68.599 61.0611 67.8552L53.502 61.9425C58.3795 60.3607 63.4718 57.8845 68.396 54.5421C73.5819 51.0209 77.9361 46.9629 81.2905 42.7638C82.0848 41.7752 82.038 40.3535 81.1878 39.412Z" fill="#5F1A1D"/>
</svg>
