<svg width="37" height="36" viewBox="0 0 37 36" fill="none" xmlns="http://www.w3.org/2000/svg">
<path d="M11.0859 16.6937L7.99873 1.40279H7.95198L4.79453 16.6937H3.62512L0 0H0.982311L4.18651 15.2909H4.23325L7.36728 0H8.56L11.7175 15.2909H11.7642L14.9684 0H15.9507L12.3022 16.6937H11.0859ZM17.6347 16.6937V0H25.61V0.888427H18.617V7.55195H25.1422V8.44037H18.617V15.8053H25.8205V16.6937H17.6347ZM27.598 16.6937V0H32.0885C35.0042 0 36.4622 1.38729 36.4622 4.16175C36.4622 5.25282 36.1854 6.11794 35.6318 6.75699C35.0783 7.39604 34.3259 7.7779 33.3749 7.90259V7.94943C34.5443 8.02728 35.4408 8.45209 36.0645 9.22363C36.6882 9.99518 37 10.9733 37 12.1579C37 13.5607 36.5752 14.6674 35.7254 15.478C34.8756 16.2884 33.7101 16.6937 32.2289 16.6937H27.598ZM28.5803 7.55195H31.7845C32.9071 7.55195 33.8037 7.27134 34.4741 6.71025C35.1446 6.14905 35.4798 5.29955 35.4798 4.16175C35.4798 1.91726 34.3884 0.794968 32.2055 0.794968H28.5803V7.55195ZM28.5803 15.8987H31.878C33.2814 15.8987 34.3221 15.6066 35.0003 15.022C35.6786 14.4375 36.0177 13.475 36.0177 12.1345C36.0177 9.6094 34.6223 8.34691 31.8313 8.34691H28.5803V15.8987Z" fill="#5F1A1D"/>
<path d="M17.832 36.0003V21.2227H22.1591C23.2495 21.2227 24.119 21.533 24.7678 22.154C25.4718 22.8301 25.8237 23.8098 25.8237 25.093C25.8237 26.1002 25.5684 26.9282 25.0576 27.5766C24.5332 28.2665 23.8017 28.6597 22.8631 28.7563V28.7978C23.9811 28.8667 24.7609 29.2393 25.2025 29.9154C25.5476 30.4674 25.7202 31.3159 25.7202 32.4611V34.0134C25.7202 34.7999 25.8859 35.4622 26.2171 36.0003H25.2233C24.9749 35.5313 24.8507 34.862 24.8507 33.9927V32.4819C24.8507 31.3504 24.6575 30.5294 24.2709 30.0189C23.8155 29.4393 23.0218 29.1496 21.89 29.1496H18.7017V36.0003H17.832ZM18.7017 28.4459H21.4759C23.7947 28.4459 24.9541 27.3282 24.9541 25.093C24.9541 24.0995 24.6954 23.3234 24.1777 22.7645C23.6602 22.2058 22.9459 21.9263 22.0349 21.9263H18.7017V28.4459ZM34.5193 30.7019L31.9728 22.0919H31.9314L29.3227 30.7019H34.5193ZM36.0929 36.0003L34.685 31.4055H29.1156L27.7078 36.0003H26.8383L31.4345 21.2227H32.5318L36.9624 36.0003H36.0929Z" fill="#5F1A1D"/>
<mask id="mask0_3_12" style="mask-type:luminance" maskUnits="userSpaceOnUse" x="1" y="22" width="14" height="13">
<path d="M11.161 22.8664C14.2283 24.5835 15.2794 28.3868 13.5084 31.3611C11.7375 34.3354 7.81512 35.3544 4.7477 33.6372C1.68038 31.92 0.629345 28.1167 2.4003 25.1425C4.17125 22.1683 8.09359 21.1492 11.161 22.8664Z" fill="white"/>
</mask>
<g mask="url(#mask0_3_12)">
<path fill-rule="evenodd" clip-rule="evenodd" d="M5.40332 34.2743L6.78536 35.048C7.11927 33.8004 7.98098 32.2753 9.1023 31.5362C9.64896 31.1759 10.4896 30.441 10.9667 30.0073C11.1702 29.8223 11.39 29.6263 11.5706 29.4314C13.4902 27.3592 12.7693 26.1306 13.1564 23.8898L12.1378 23.3196C12.0385 24.0058 11.9554 24.68 11.8048 25.4008C11.6411 26.1839 11.5924 26.7971 11.1357 27.5441C10.7019 28.2537 10.1711 28.907 9.65577 29.5495C9.39281 29.8774 8.45234 31.4402 8.23936 31.4328C8.06231 31.2223 8.3333 30.6544 8.43639 30.3796C8.5764 30.0063 8.73894 29.6343 8.89625 29.2592C9.20628 28.5197 9.51297 27.7404 9.89195 27.0311C10.2143 26.4277 10.4614 25.5221 10.678 24.863C10.7659 24.5956 10.995 24.0007 10.9824 23.7768C10.9642 23.4526 10.9988 23.1008 11.1182 22.7488L10.2466 22.2607C9.94829 23.669 9.89986 23.8169 9.36916 25.1878C8.97188 26.214 8.56111 27.1878 8.03342 28.199C7.74983 28.7425 7.44035 29.156 7.24511 29.7318C7.07453 30.2347 6.96074 30.7031 6.74497 31.2211C6.32282 32.2348 5.80841 33.2568 5.40332 34.2743Z" fill="#5F1A1D"/>
<path fill-rule="evenodd" clip-rule="evenodd" d="M7.45605 35.4254L7.96914 35.7126C8.72832 35.1734 8.67355 34.9635 9.23103 34.5215C9.44054 34.3553 9.70427 34.1888 9.88813 34.013C10.5487 33.3812 10.2908 33.4347 11.246 33.1233L13.5039 32.3928L14.4235 30.8484L14.371 30.8596C14.3643 30.8614 14.3528 30.864 14.3455 30.866L13.8372 31.0586C13.4625 31.2043 12.2464 31.7758 12.1455 31.2686C12.1219 31.1231 14.3536 29.8202 14.7357 29.2302C15.1943 28.5216 15.9359 27.3702 16.3349 26.6273C16.5226 26.2784 16.4754 26.1401 16.5616 25.798L15.5129 25.2109C15.2967 25.9307 15.3522 26.0824 14.8271 26.7096C14.6534 26.9171 14.4348 27.1682 14.3002 27.4036C13.613 28.6056 12.7641 29.7899 11.7592 30.7831C10.7088 31.8209 9.37517 32.0742 8.26958 33.8561C7.94036 34.3866 7.62507 34.8367 7.45605 35.4254Z" fill="#5F1A1D"/>
<path fill-rule="evenodd" clip-rule="evenodd" d="M-1.02441 30.6764L0.0455889 31.2754C0.204678 30.6851 0.168862 30.3163 0.244725 29.6443C0.288234 29.2587 0.212491 29.4291 0.334095 28.8454C0.491622 28.0887 0.737502 27.0505 0.951592 26.3286C1.19089 25.5215 1.40264 23.8919 1.49167 23.0246C1.50629 22.8824 1.48932 22.7564 1.50449 22.6297C1.54243 22.3145 1.78743 21.7881 1.79234 21.381C1.79881 20.8437 1.84377 20.2819 2.10237 19.7312C2.35919 19.1844 2.44598 18.5532 2.6555 18.0116L2.04157 17.6679L1.82178 19.0489C1.60914 18.8973 1.60914 17.6913 1.63492 17.4402L0.874729 17.0146C0.842487 17.701 1.25103 18.758 1.1485 19.4517C1.10857 19.7219 1.03025 20.0512 1.0346 20.3051C1.05379 21.3963 0.526874 22.6295 0.357857 23.757C0.276527 24.2992 0.220182 24.94 0.0842983 25.4724C-0.0678738 26.0687 -0.291334 26.6212 -0.411711 27.2286C-0.470058 27.5232 -0.458677 27.7671 -0.53309 28.0809C-0.65659 28.601 -0.99585 29.5011 -0.976215 29.8299C-0.958923 30.12 -0.889311 30.365 -1.02441 30.6764Z" fill="#5F1A1D"/>
<path fill-rule="evenodd" clip-rule="evenodd" d="M3.28125 33.0884L4.54102 33.7936C4.80297 33.0185 4.85172 33.5103 5.31917 32.1536C5.50693 31.6083 5.67081 31.0419 5.82477 30.4953C6.20854 29.1335 6.237 28.7792 6.12253 27.3087C6.10212 27.0464 6.03385 26.831 6.0768 26.5623C6.17966 25.9194 6.54078 24.7275 6.72921 24.0881C6.89154 23.537 7.06513 22.9824 7.24084 22.4268C7.42883 21.8326 7.46687 21.3523 7.60398 20.7834L6.79068 20.3281C6.67276 20.8404 6.59255 21.3721 6.4763 21.8897C6.40959 22.1871 6.44908 22.3701 6.38895 22.6649C6.22428 23.4726 5.92094 24.3055 5.65062 25.0784C5.47123 25.5913 5.34472 26.158 5.21497 26.6778C5.03815 27.3859 5.06604 28.2538 4.88865 28.9902C4.54582 30.4132 4.00585 31.7929 3.28125 33.0884Z" fill="#5F1A1D"/>
<path fill-rule="evenodd" clip-rule="evenodd" d="M1.08008 31.8552L2.52125 32.6621C3.36846 31.4584 3.40405 30.746 3.73317 29.4559C3.91189 28.7553 4.37376 26.9431 4.46535 26.3093C4.69339 24.7323 5.05061 24.4532 5.48805 23.1066C5.72267 22.3847 5.84996 21.5202 6.00358 20.7603C6.05379 20.5121 6.08145 20.2006 6.14717 19.9671L5.35473 19.5234C4.92845 21.08 4.74359 22.5143 4.27067 24.1256C4.08068 24.7732 3.58903 25.9079 3.51606 26.4668C3.47512 26.7801 3.54529 26.8569 3.42681 27.2197C3.33879 27.489 3.23983 27.7373 3.14623 28.0034C3.04794 28.2825 3.03333 28.5226 2.94397 28.777C2.22784 30.8136 1.71197 30.7319 1.08008 31.8552Z" fill="#5F1A1D"/>
<path fill-rule="evenodd" clip-rule="evenodd" d="M4.42861 19.005L3.49684 18.4834C3.35939 18.9336 3.28352 19.4966 3.1675 19.965C3.04935 20.442 2.85211 21.0196 2.81909 21.4751C2.79287 21.8361 2.79533 22.6246 2.67885 22.9205C2.48061 23.4242 2.37619 23.9362 2.26027 24.4395C2.02923 25.4434 1.88821 26.4559 1.44084 27.4555C1.19752 27.9993 0.879786 30.0256 1.18212 30.3643C1.69007 30.441 1.77743 29.4821 1.86578 29.1592C2.15161 28.1161 2.65899 27.271 2.7961 26.243C2.85367 25.8112 2.908 25.211 3.05459 24.7968C3.23265 24.2941 3.35638 23.8581 3.46002 23.3541L3.72118 21.9102C3.84591 21.4209 4.02207 20.9423 4.16911 20.4551C4.33769 19.8961 4.34259 19.5314 4.42861 19.005Z" fill="#5F1A1D"/>
<path fill-rule="evenodd" clip-rule="evenodd" d="M9.30086 21.7325L8.41974 21.2393C8.30673 21.8363 8.31197 22.3328 8.12098 22.9669C8.00752 23.3435 7.62909 24.1638 7.42616 24.787C7.20694 25.46 6.3508 27.8917 6.9557 28.2181C7.222 28.1696 7.26998 27.7739 7.31806 27.542C7.43732 26.9675 7.77268 26.4294 8.0218 25.8634C8.1675 25.5326 8.18423 25.3501 8.27493 25.0384C8.43647 24.4826 8.64577 23.9397 8.83855 23.3882C9.03345 22.8303 9.13385 22.2808 9.30086 21.7325Z" fill="#5F1A1D"/>
<path fill-rule="evenodd" clip-rule="evenodd" d="M8.875 36.2179L10.0384 36.8692C10.33 36.505 10.8842 36.0914 11.28 36.1284L12.612 33.8914C12.3949 33.8764 11.8219 34.078 11.5665 34.1879C11.2498 34.324 10.9354 34.487 10.6204 34.692C10.1401 35.0047 9.20277 35.6919 8.875 36.2179Z" fill="#5F1A1D"/>
</g>
</svg>
